  0
SECTION
  2
HEADER
  9
$ACADVER
  1
AC1009
  9
$INSBASE
 10
0.0
 20
0.0
 30
0.0
  9
$EXTMIN
 10
0.0
 20
0.0
 30
0.0
  9
$EXTMAX
 10
100.0
 20
100.0
 30
0.0
  9
$UNITMODE
 70
0
  9
$AUNITS
 70
0
  9
$ANGBASE
 50
0.0
  9
$ANGDIR
 70
0
  0
ENDSEC
  0
SECTION
  2
TABLES
  0
TABLE
  2
LTYPE
 70
19
  0
LTYPE
  2
CONTINUOUS
 70
0
  3
Solid
 72
65
 73
0
 40
0.0
  0
LTYPE
  2
CENTER
 70
0
  3
Center ____ _ ____ _ ____ _ ____ _ ____ _ ____
 72
65
 73
4
 40
2.0
 49
1.25
 49
-0.25
 49
0.25
 49
-0.25
  0
LTYPE
  2
CENTERX2
 70
0
  3
Center (2x) ________  __  ________  __  ________
 72
65
 73
4
 40
3.5
 49
2.5
 49
-0.25
 49
0.5
 49
-0.25
  0
LTYPE
  2
CENTER2
 70
0
  3
Center (.5x) ____ _ ____ _ ____ _ ____ _ ____
 72
65
 73
4
 40
1.0
 49
0.625
 49
-0.125
 49
0.125
 49
-0.125
  0
LTYPE
  2
DASHED
 70
0
  3
Dashed __ __ __ __ __ __ __ __ __ __ __ __ __ _
 72
65
 73
2
 40
0.6
 49
0.5
 49
-0.1
  0
LTYPE
  2
DASHEDX2
 70
0
  3
Dashed (2x) ____  ____  ____  ____  ____  ____
 72
65
 73
2
 40
1.2
 49
1.0
 49
-0.2
  0
LTYPE
  2
DASHED2
 70
0
  3
Dashed (.5x) _ _ _ _ _ _ _ _ _ _ _ _ _ _
 72
65
 73
2
 40
0.3
 49
0.25
 49
-0.05
  0
LTYPE
  2
PHANTOM
 70
0
  3
Phantom ______  __  __  ______  __  __  ______
 72
65
 73
6
 40
2.5
 49
1.25
 49
-0.25
 49
0.25
 49
-0.25
 49
0.25
 49
-0.25
  0
LTYPE
  2
PHANTOMX2
 70
0
  3
Phantom (2x)____________    ____    ____    ____________
 72
65
 73
6
 40
4.25
 49
2.5
 49
-0.25
 49
0.5
 49
-0.25
 49
0.5
 49
-0.25
  0
LTYPE
  2
PHANTOM2
 70
0
  3
Phantom (.5x) ___ _ _ ___ _ _ ___ _ _ ___ _ _ ___
 72
65
 73
6
 40
1.25
 49
0.625
 49
-0.125
 49
0.125
 49
-0.125
 49
0.125
 49
-0.125
  0
LTYPE
  2
DASHDOT
 70
0
  3
Dash dot __ . __ . __ . __ . __ . __ . __ . __
 72
65
 73
4
 40
1.4
 49
1.0
 49
-0.2
 49
0.0
 49
-0.2
  0
LTYPE
  2
DASHDOTX2
 70
0
  3
Dash dot (2x) ____  .  ____  .  ____  .  ____
 72
65
 73
4
 40
2.4
 49
2.0
 49
-0.2
 49
0.0
 49
-0.2
  0
LTYPE
  2
DASHDOT2
 70
0
  3
Dash dot (.5x) _ . _ . _ . _ . _ . _ . _ . _
 72
65
 73
4
 40
0.7
 49
0.5
 49
-0.1
 49
0.0
 49
-0.1
  0
LTYPE
  2
DOT
 70
0
  3
Dot .  .  .  .  .  .  .  .  .  .  .  .  .  .  .  .
 72
65
 73
2
 40
0.2
 49
0.0
 49
-0.2
  0
LTYPE
  2
DOTX2
 70
0
  3
Dot (2x) .    .    .    .    .    .    .    . 
 72
65
 73
2
 40
0.4
 49
0.0
 49
-0.4
  0
LTYPE
  2
DOT2
 70
0
  3
Dot (.5) . . . . . . . . . . . . . . . . . . . 
 72
65
 73
2
 40
0.1
 49
0.0
 49
-0.1
  0
LTYPE
  2
DIVIDE
 70
0
  3
Divide __ . . __ . . __ . . __ . . __ . . __
 72
65
 73
6
 40
1.6
 49
1.0
 49
-0.2
 49
0.0
 49
-0.2
 49
0.0
 49
-0.2
  0
LTYPE
  2
DIVIDEX2
 70
0
  3
Divide (2x) ____  . .  ____  . .  ____  . .  ____
 72
65
 73
6
 40
2.6
 49
2.0
 49
-0.2
 49
0.0
 49
-0.2
 49
0.0
 49
-0.2
  0
LTYPE
  2
DIVIDE2
 70
0
  3
Divide(.5x) _ . _ . _ . _ . _ . _ . _ . _
 72
65
 73
6
 40
0.8
 49
0.5
 49
-0.1
 49
0.0
 49
-0.1
 49
0.0
 49
-0.1
  0
ENDTAB
  0
TABLE
  2
LAYER
 70
7
  0
LAYER
  2
DIMENSIONS
 70
0
 62
1
  6
CONTINUOUS
  0
LAYER
  2
TABLEBACKGROUND
 70
0
 62
1
  6
CONTINUOUS
  0
LAYER
  2
TABLECONTENT
 70
0
 62
1
  6
CONTINUOUS
  0
LAYER
  2
TABLEGRID
 70
0
 62
1
  6
CONTINUOUS
  0
LAYER
  2
VIEWPORTS
 70
0
 62
7
  6
CONTINUOUS
  0
LAYER
  2
COMBINADO H10 TERRENO copiar
 70
0
 62
1
  6
CONTINUOUS
  0
LAYER
  2
H10 SIERRA
 70
0
 62
1
  6
CONTINUOUS
  0
ENDTAB
  0
TABLE
  2
STYLE
 70
12
  0
STYLE
  2
STANDARD
 70
0
 40
0.0
 41
1.0
 42
1.0
 50
0.0
 71
0
  3
arial.ttf
  4

  0
STYLE
  2
ARIAL
 70
0
 40
0.0
 41
1.0
 42
1.0
 50
0.0
 71
0
  3
arial.ttf
  4

  0
STYLE
  2
ARIAL_BOLD
 70
0
 40
0.0
 41
1.0
 42
1.0
 50
0.0
 71
0
  3
arialbd.ttf
  4

  0
STYLE
  2
ARIAL_ITALIC
 70
0
 40
0.0
 41
1.0
 42
1.0
 50
0.0
 71
0
  3
ariali.ttf
  4

  0
STYLE
  2
ARIAL_BOLD_ITALIC
 70
0
 40
0.0
 41
1.0
 42
1.0
 50
0.0
 71
0
  3
arialbi.ttf
  4

  0
STYLE
  2
ARIAL_BLACK
 70
0
 40
0.0
 41
1.0
 42
1.0
 50
0.0
 71
0
  3
ariblk.ttf
  4

  0
STYLE
  2
ISOCPEUR
 70
0
 40
0.0
 41
1.0
 42
1.0
 50
0.0
 71
0
  3
isocpeur.ttf
  4

  0
STYLE
  2
ISOCPEUR_ITALIC
 70
0
 40
0.0
 41
1.0
 42
1.0
 50
0.0
 71
0
  3
isocpeui.ttf
  4

  0
STYLE
  2
TIMES
 70
0
 40
0.0
 41
1.0
 42
1.0
 50
0.0
 71
0
  3
times.ttf
  4

  0
STYLE
  2
TIMES_BOLD
 70
0
 40
0.0
 41
1.0
 42
1.0
 50
0.0
 71
0
  3
timesbd.ttf
  4

  0
STYLE
  2
TIMES_ITALIC
 70
0
 40
0.0
 41
1.0
 42
1.0
 50
0.0
 71
0
  3
timesi.ttf
  4

  0
STYLE
  2
TIMES_BOLD_ITALIC
 70
0
 40
0.0
 41
1.0
 42
1.0
 50
0.0
 71
0
  3
timesbi.ttf
  4

  0
ENDTAB
  0
TABLE
  2
VIEW
 70
0
  0
ENDTAB
  0
TABLE
  2
APPID
 70
1
  0
APPID
  2
DXFWRITE
 70
0
  0
ENDTAB
  0
TABLE
  2
VPORT
 70
0
  0
ENDTAB
  0
TABLE
  2
UCS
 70
0
  0
ENDTAB
  0
ENDSEC
  0
SECTION
  2
BLOCKS
  0
ENDSEC
  0
SECTION
  2
ENTITIES
  0
VIEWPORT
  8
VIEWPORTS
 67
1
 10
0.0
 20
0.0
 30
0.0
 40
1.0
 41
1.0
 68
1
 69
1
1001
ACAD
1000
MVIEW
1002
{
1070
16
1010
0.0
1020
0.0
1030
0.0
1010
0.0
1020
0.0
1030
0.0
1040
0.0
1040
1.0
1040
0.0
1040
0.0
1040
50.0
1040
0.0
1040
0.0
1070
0
1070
100
1070
1
1070
3
1070
0
1070
0
1070
0
1070
0
1040
0.0
1040
0.0
1040
0.0
1040
0.1
1040
0.1
1040
0.1
1040
0.1
1070
0
1002
{
1002
}
1002
}
  0
POLYLINE
 62
7
  8
COMBINADO H10 TERRENO copiar
 66
1
 10
0.0
 20
0.0
 30
0.0
 70
8
  0
VERTEX
  8
COMBINADO H10 TERRENO copiar
 10
4535.134982945462
 20
66.35600280761719
 30
0.0
  0
VERTEX
  8
COMBINADO H10 TERRENO copiar
 10
4549.486675929466
 20
65.22100067138672
 30
0.0
  0
VERTEX
  8
COMBINADO H10 TERRENO copiar
 10
4563.838368913472
 20
64.66500091552734
 30
0.0
  0
VERTEX
  8
COMBINADO H10 TERRENO copiar
 10
4578.190061897476
 20
63.784000396728516
 30
0.0
  0
VERTEX
  8
COMBINADO H10 TERRENO copiar
 10
4592.54175488148
 20
63.507999420166016
 30
0.0
  0
VERTEX
  8
COMBINADO H10 TERRENO copiar
 10
4606.8934478654855
 20
63.37699890136719
 30
0.0
  0
VERTEX
  8
COMBINADO H10 TERRENO copiar
 10
4621.24514084949
 20
63.58399963378906
 30
0.0
  0
VERTEX
  8
COMBINADO H10 TERRENO copiar
 10
4635.596833833494
 20
63.62300109863281
 30
0.0
  0
VERTEX
  8
COMBINADO H10 TERRENO copiar
 10
4649.948526817499
 20
63.57400131225586
 30
0.0
  0
VERTEX
  8
COMBINADO H10 TERRENO copiar
 10
4664.300219801504
 20
63.53499984741211
 30
0.0
  0
VERTEX
  8
COMBINADO H10 TERRENO copiar
 10
4678.651912785508
 20
63.483001708984375
 30
0.0
  0
VERTEX
  8
COMBINADO H10 TERRENO copiar
 10
4693.003605769513
 20
63.46799850463867
 30
0.0
  0
VERTEX
  8
COMBINADO H10 TERRENO copiar
 10
4707.355298753518
 20
63.47600173950195
 30
0.0
  0
VERTEX
  8
COMBINADO H10 TERRENO copiar
 10
4721.706991737522
 20
63.74800109863281
 30
0.0
  0
VERTEX
  8
COMBINADO H10 TERRENO copiar
 10
4736.058684721527
 20
63.933998107910156
 30
0.0
  0
VERTEX
  8
COMBINADO H10 TERRENO copiar
 10
4750.410377705532
 20
65.06300354003906
 30
0.0
  0
VERTEX
  8
COMBINADO H10 TERRENO copiar
 10
4764.762070689536
 20
65.38999938964844
 30
0.0
  0
VERTEX
  8
COMBINADO H10 TERRENO copiar
 10
4779.113763673541
 20
65.927001953125
 30
0.0
  0
VERTEX
  8
COMBINADO H10 TERRENO copiar
 10
4793.4654566575455
 20
66.23300170898438
 30
0.0
  0
VERTEX
  8
COMBINADO H10 TERRENO copiar
 10
4807.81714964155
 20
66.87200164794922
 30
0.0
  0
VERTEX
  8
COMBINADO H10 TERRENO copiar
 10
4822.168842625555
 20
67.20600128173828
 30
0.0
  0
VERTEX
  8
COMBINADO H10 TERRENO copiar
 10
4836.520535609559
 20
67.46399688720703
 30
0.0
  0
VERTEX
  8
COMBINADO H10 TERRENO copiar
 10
4850.872228593564
 20
68.14600372314453
 30
0.0
  0
VERTEX
  8
COMBINADO H10 TERRENO copiar
 10
4865.223921577569
 20
68.36599731445312
 30
0.0
  0
VERTEX
  8
COMBINADO H10 TERRENO copiar
 10
4879.575614561573
 20
68.6259994506836
 30
0.0
  0
VERTEX
  8
COMBINADO H10 TERRENO copiar
 10
4893.927307545578
 20
68.48799896240234
 30
0.0
  0
VERTEX
  8
COMBINADO H10 TERRENO copiar
 10
4908.279000529583
 20
68.2509994506836
 30
0.0
  0
VERTEX
  8
COMBINADO H10 TERRENO copiar
 10
4922.630693513587
 20
68.18000030517578
 30
0.0
  0
VERTEX
  8
COMBINADO H10 TERRENO copiar
 10
4936.9823864975915
 20
68.03099822998047
 30
0.0
  0
VERTEX
  8
COMBINADO H10 TERRENO copiar
 10
4951.334079481597
 20
67.36000061035156
 30
0.0
  0
VERTEX
  8
COMBINADO H10 TERRENO copiar
 10
4965.685772465601
 20
66.90799713134766
 30
0.0
  0
VERTEX
  8
COMBINADO H10 TERRENO copiar
 10
4980.037465449605
 20
65.9749984741211
 30
0.0
  0
VERTEX
  8
COMBINADO H10 TERRENO copiar
 10
4994.389158433611
 20
65.51000213623047
 30
0.0
  0
VERTEX
  8
COMBINADO H10 TERRENO copiar
 10
5008.740851417615
 20
64.51200103759766
 30
0.0
  0
VERTEX
  8
COMBINADO H10 TERRENO copiar
 10
5023.092544401619
 20
64.07499694824219
 30
0.0
  0
VERTEX
  8
COMBINADO H10 TERRENO copiar
 10
5037.444237385624
 20
63.652000427246094
 30
0.0
  0
VERTEX
  8
COMBINADO H10 TERRENO copiar
 10
5051.795930369629
 20
62.8390007019043
 30
0.0
  0
VERTEX
  8
COMBINADO H10 TERRENO copiar
 10
5066.147623353633
 20
62.40599822998047
 30
0.0
  0
VERTEX
  8
COMBINADO H10 TERRENO copiar
 10
5080.4993163376375
 20
61.48899841308594
 30
0.0
  0
VERTEX
  8
COMBINADO H10 TERRENO copiar
 10
5094.851009321643
 20
61.01300048828125
 30
0.0
  0
VERTEX
  8
COMBINADO H10 TERRENO copiar
 10
5109.202702305647
 20
59.98699951171875
 30
0.0
  0
VERTEX
  8
COMBINADO H10 TERRENO copiar
 10
5123.554395289651
 20
59.4379997253418
 30
0.0
  0
VERTEX
  8
COMBINADO H10 TERRENO copiar
 10
5137.906088273657
 20
58.87900161743164
 30
0.0
  0
VERTEX
  8
COMBINADO H10 TERRENO copiar
 10
5152.257781257661
 20
57.880001068115234
 30
0.0
  0
VERTEX
  8
COMBINADO H10 TERRENO copiar
 10
5166.609474241665
 20
57.39400100708008
 30
0.0
  0
VERTEX
  8
COMBINADO H10 TERRENO copiar
 10
5180.961167225671
 20
56.73400115966797
 30
0.0
  0
VERTEX
  8
COMBINADO H10 TERRENO copiar
 10
5195.312860209675
 20
56.595001220703125
 30
0.0
  0
VERTEX
  8
COMBINADO H10 TERRENO copiar
 10
5209.664553193679
 20
56.474998474121094
 30
0.0
  0
VERTEX
  8
COMBINADO H10 TERRENO copiar
 10
5224.0162461776845
 20
56.38100051879883
 30
0.0
  0
VERTEX
  8
COMBINADO H10 TERRENO copiar
 10
5238.367939161689
 20
56.16400146484375
 30
0.0
  0
VERTEX
  8
COMBINADO H10 TERRENO copiar
 10
5252.719632145693
 20
55.284000396728516
 30
0.0
  0
VERTEX
  8
COMBINADO H10 TERRENO copiar
 10
5267.071325129698
 20
55.21200180053711
 30
0.0
  0
VERTEX
  8
COMBINADO H10 TERRENO copiar
 10
5281.423018113703
 20
55.99399948120117
 30
0.0
  0
VERTEX
  8
COMBINADO H10 TERRENO copiar
 10
5295.774711097707
 20
56.375
 30
0.0
  0
VERTEX
  8
COMBINADO H10 TERRENO copiar
 10
5310.126404081712
 20
56.50400161743164
 30
0.0
  0
VERTEX
  8
COMBINADO H10 TERRENO copiar
 10
5324.478097065717
 20
56.45000076293945
 30
0.0
  0
VERTEX
  8
COMBINADO H10 TERRENO copiar
 10
5338.829790049721
 20
56.46900177001953
 30
0.0
  0
VERTEX
  8
COMBINADO H10 TERRENO copiar
 10
5353.181483033726
 20
56.40399932861328
 30
0.0
  0
VERTEX
  8
COMBINADO H10 TERRENO copiar
 10
5367.5331760177305
 20
56.4370002746582
 30
0.0
  0
VERTEX
  8
COMBINADO H10 TERRENO copiar
 10
5381.884869001735
 20
56.51599884033203
 30
0.0
  0
VERTEX
  8
COMBINADO H10 TERRENO copiar
 10
5396.23656198574
 20
56.54899978637695
 30
0.0
  0
VERTEX
  8
COMBINADO H10 TERRENO copiar
 10
5410.588254969744
 20
56.34600067138672
 30
0.0
  0
VERTEX
  8
COMBINADO H10 TERRENO copiar
 10
5424.939947953749
 20
56.28099822998047
 30
0.0
  0
VERTEX
  8
COMBINADO H10 TERRENO copiar
 10
5439.291640937754
 20
56.268001556396484
 30
0.0
  0
VERTEX
  8
COMBINADO H10 TERRENO copiar
 10
5453.643333921758
 20
56.3129997253418
 30
0.0
  0
VERTEX
  8
COMBINADO H10 TERRENO copiar
 10
5467.995026905763
 20
56.375
 30
0.0
  0
VERTEX
  8
COMBINADO H10 TERRENO copiar
 10
5482.346719889768
 20
56.527000427246094
 30
0.0
  0
VERTEX
  8
COMBINADO H10 TERRENO copiar
 10
5496.698412873772
 20
56.63199996948242
 30
0.0
  0
VERTEX
  8
COMBINADO H10 TERRENO copiar
 10
5511.0501058577765
 20
56.895999908447266
 30
0.0
  0
VERTEX
  8
COMBINADO H10 TERRENO copiar
 10
5525.401798841782
 20
57.055999755859375
 30
0.0
  0
VERTEX
  8
COMBINADO H10 TERRENO copiar
 10
5539.753491825786
 20
57.290000915527344
 30
0.0
  0
VERTEX
  8
COMBINADO H10 TERRENO copiar
 10
5554.10518480979
 20
57.459999084472656
 30
0.0
  0
VERTEX
  8
COMBINADO H10 TERRENO copiar
 10
5568.456877793796
 20
57.643001556396484
 30
0.0
  0
VERTEX
  8
COMBINADO H10 TERRENO copiar
 10
5582.8085707778
 20
57.97999954223633
 30
0.0
  0
VERTEX
  8
COMBINADO H10 TERRENO copiar
 10
5597.160263761804
 20
58.13600158691406
 30
0.0
  0
VERTEX
  8
COMBINADO H10 TERRENO copiar
 10
5611.51195674581
 20
58.500999450683594
 30
0.0
  0
VERTEX
  8
COMBINADO H10 TERRENO copiar
 10
5625.863649729814
 20
58.749000549316406
 30
0.0
  0
VERTEX
  8
COMBINADO H10 TERRENO copiar
 10
5640.215342713818
 20
59.37200164794922
 30
0.0
  0
VERTEX
  8
COMBINADO H10 TERRENO copiar
 10
5654.5670356978235
 20
59.72200012207031
 30
0.0
  0
VERTEX
  8
COMBINADO H10 TERRENO copiar
 10
5668.918728681828
 20
59.65599822998047
 30
0.0
  0
VERTEX
  8
COMBINADO H10 TERRENO copiar
 10
5683.270421665832
 20
60.347999572753906
 30
0.0
  0
VERTEX
  8
COMBINADO H10 TERRENO copiar
 10
5697.6221146498365
 20
60.731998443603516
 30
0.0
  0
VERTEX
  8
COMBINADO H10 TERRENO copiar
 10
5711.973807633842
 20
61.5989990234375
 30
0.0
  0
VERTEX
  8
COMBINADO H10 TERRENO copiar
 10
5726.325500617846
 20
62.053001403808594
 30
0.0
  0
VERTEX
  8
COMBINADO H10 TERRENO copiar
 10
5740.67719360185
 20
62.90800094604492
 30
0.0
  0
VERTEX
  8
COMBINADO H10 TERRENO copiar
 10
5755.028886585856
 20
63.33399963378906
 30
0.0
  0
VERTEX
  8
COMBINADO H10 TERRENO copiar
 10
5769.38057956986
 20
63.76599884033203
 30
0.0
  0
VERTEX
  8
COMBINADO H10 TERRENO copiar
 10
5783.732272553864
 20
64.58499908447266
 30
0.0
  0
VERTEX
  8
COMBINADO H10 TERRENO copiar
 10
5798.0839655378695
 20
64.86900329589844
 30
0.0
  0
VERTEX
  8
COMBINADO H10 TERRENO copiar
 10
5812.435658521874
 20
65.69000244140625
 30
0.0
  0
VERTEX
  8
COMBINADO H10 TERRENO copiar
 10
5826.787351505878
 20
66.09700012207031
 30
0.0
  0
VERTEX
  8
COMBINADO H10 TERRENO copiar
 10
5841.139044489883
 20
66.91699981689453
 30
0.0
  0
VERTEX
  8
COMBINADO H10 TERRENO copiar
 10
5855.490737473888
 20
67.29900360107422
 30
0.0
  0
VERTEX
  8
COMBINADO H10 TERRENO copiar
 10
5869.842430457892
 20
67.6259994506836
 30
0.0
  0
VERTEX
  8
COMBINADO H10 TERRENO copiar
 10
5884.194123441897
 20
68.00599670410156
 30
0.0
  0
VERTEX
  8
COMBINADO H10 TERRENO copiar
 10
5898.545816425902
 20
68.13500213623047
 30
0.0
  0
VERTEX
  8
COMBINADO H10 TERRENO copiar
 10
5912.897509409906
 20
68.33000183105469
 30
0.0
  0
VERTEX
  8
COMBINADO H10 TERRENO copiar
 10
5927.249202393911
 20
68.41000366210938
 30
0.0
  0
VERTEX
  8
COMBINADO H10 TERRENO copiar
 10
5941.600895377916
 20
68.74600219726562
 30
0.0
  0
VERTEX
  8
COMBINADO H10 TERRENO copiar
 10
5955.95258836192
 20
68.80400085449219
 30
0.0
  0
VERTEX
  8
COMBINADO H10 TERRENO copiar
 10
5970.304281345925
 20
68.86399841308594
 30
0.0
  0
VERTEX
  8
COMBINADO H10 TERRENO copiar
 10
5984.655974329929
 20
68.83799743652344
 30
0.0
  0
VERTEX
  8
COMBINADO H10 TERRENO copiar
 10
5999.007667313934
 20
68.78399658203125
 30
0.0
  0
VERTEX
  8
COMBINADO H10 TERRENO copiar
 10
6013.359360297939
 20
68.56999969482422
 30
0.0
  0
VERTEX
  8
COMBINADO H10 TERRENO copiar
 10
6027.711053281943
 20
68.4469985961914
 30
0.0
  0
VERTEX
  8
COMBINADO H10 TERRENO copiar
 10
6042.062746265948
 20
68.21399688720703
 30
0.0
  0
VERTEX
  8
COMBINADO H10 TERRENO copiar
 10
6056.414439249953
 20
68.11699676513672
 30
0.0
  0
VERTEX
  8
COMBINADO H10 TERRENO copiar
 10
6070.766132233957
 20
68.09200286865234
 30
0.0
  0
VERTEX
  8
COMBINADO H10 TERRENO copiar
 10
6085.117825217962
 20
68.01300048828125
 30
0.0
  0
VERTEX
  8
COMBINADO H10 TERRENO copiar
 10
6099.469518201967
 20
67.97100067138672
 30
0.0
  0
VERTEX
  8
COMBINADO H10 TERRENO copiar
 10
6113.821211185971
 20
67.9530029296875
 30
0.0
  0
VERTEX
  8
COMBINADO H10 TERRENO copiar
 10
6128.1729041699755
 20
67.97799682617188
 30
0.0
  0
VERTEX
  8
COMBINADO H10 TERRENO copiar
 10
6142.524597153981
 20
68.0979995727539
 30
0.0
  0
VERTEX
  8
COMBINADO H10 TERRENO copiar
 10
6156.876290137985
 20
68.19200134277344
 30
0.0
  0
VERTEX
  8
COMBINADO H10 TERRENO copiar
 10
6171.227983121989
 20
68.4520034790039
 30
0.0
  0
VERTEX
  8
COMBINADO H10 TERRENO copiar
 10
6185.579676105995
 20
68.6240005493164
 30
0.0
  0
VERTEX
  8
COMBINADO H10 TERRENO copiar
 10
6199.931369089999
 20
68.92900085449219
 30
0.0
  0
VERTEX
  8
COMBINADO H10 TERRENO copiar
 10
6214.283062074003
 20
69.27100372314453
 30
0.0
  0
VERTEX
  8
COMBINADO H10 TERRENO copiar
 10
6228.6347550580085
 20
69.37000274658203
 30
0.0
  0
VERTEX
  8
COMBINADO H10 TERRENO copiar
 10
6242.986448042013
 20
69.4280014038086
 30
0.0
  0
VERTEX
  8
COMBINADO H10 TERRENO copiar
 10
6257.338141026017
 20
69.43599700927734
 30
0.0
  0
VERTEX
  8
COMBINADO H10 TERRENO copiar
 10
6271.689834010022
 20
69.49199676513672
 30
0.0
  0
VERTEX
  8
COMBINADO H10 TERRENO copiar
 10
6286.041526994027
 20
69.54399871826172
 30
0.0
  0
VERTEX
  8
COMBINADO H10 TERRENO copiar
 10
6300.393219978031
 20
69.61000061035156
 30
0.0
  0
VERTEX
  8
COMBINADO H10 TERRENO copiar
 10
6314.744912962036
 20
69.75399780273438
 30
0.0
  0
VERTEX
  8
COMBINADO H10 TERRENO copiar
 10
6329.096605946041
 20
69.89199829101562
 30
0.0
  0
VERTEX
  8
COMBINADO H10 TERRENO copiar
 10
6343.448298930045
 20
70.03199768066406
 30
0.0
  0
VERTEX
  8
COMBINADO H10 TERRENO copiar
 10
6357.799991914049
 20
70.0989990234375
 30
0.0
  0
VERTEX
  8
COMBINADO H10 TERRENO copiar
 10
6372.151684898055
 20
70.21399688720703
 30
0.0
  0
VERTEX
  8
COMBINADO H10 TERRENO copiar
 10
6386.503377882059
 20
70.25800323486328
 30
0.0
  0
VERTEX
  8
COMBINADO H10 TERRENO copiar
 10
6400.855070866063
 20
70.29299926757812
 30
0.0
  0
VERTEX
  8
COMBINADO H10 TERRENO copiar
 10
6415.2067638500685
 20
70.3239974975586
 30
0.0
  0
VERTEX
  8
COMBINADO H10 TERRENO copiar
 10
6429.558456834073
 20
70.31199645996094
 30
0.0
  0
VERTEX
  8
COMBINADO H10 TERRENO copiar
 10
6443.910149818077
 20
70.27899932861328
 30
0.0
  0
VERTEX
  8
COMBINADO H10 TERRENO copiar
 10
6458.261842802082
 20
70.43800354003906
 30
0.0
  0
VERTEX
  8
COMBINADO H10 TERRENO copiar
 10
6472.613535786087
 20
70.69200134277344
 30
0.0
  0
VERTEX
  8
COMBINADO H10 TERRENO copiar
 10
6486.965228770091
 20
70.9229965209961
 30
0.0
  0
VERTEX
  8
COMBINADO H10 TERRENO copiar
 10
6501.316921754096
 20
71.1969985961914
 30
0.0
  0
VERTEX
  8
COMBINADO H10 TERRENO copiar
 10
6515.668614738101
 20
71.71399688720703
 30
0.0
  0
VERTEX
  8
COMBINADO H10 TERRENO copiar
 10
6530.020307722105
 20
71.9020004272461
 30
0.0
  0
VERTEX
  8
COMBINADO H10 TERRENO copiar
 10
6544.37200070611
 20
72.2040023803711
 30
0.0
  0
VERTEX
  8
COMBINADO H10 TERRENO copiar
 10
6558.7236936901145
 20
72.35900115966797
 30
0.0
  0
VERTEX
  8
COMBINADO H10 TERRENO copiar
 10
6573.075386674119
 20
72.71399688720703
 30
0.0
  0
VERTEX
  8
COMBINADO H10 TERRENO copiar
 10
6587.427079658124
 20
72.81999969482422
 30
0.0
  0
VERTEX
  8
COMBINADO H10 TERRENO copiar
 10
6601.778772642128
 20
73.31099700927734
 30
0.0
  0
VERTEX
  8
COMBINADO H10 TERRENO copiar
 10
6616.130465626133
 20
73.5989990234375
 30
0.0
  0
VERTEX
  8
COMBINADO H10 TERRENO copiar
 10
6630.482158610138
 20
73.8949966430664
 30
0.0
  0
VERTEX
  8
COMBINADO H10 TERRENO copiar
 10
6644.833851594142
 20
74.44100189208984
 30
0.0
  0
VERTEX
  8
COMBINADO H10 TERRENO copiar
 10
6659.185544578147
 20
74.64399719238281
 30
0.0
  0
VERTEX
  8
COMBINADO H10 TERRENO copiar
 10
6673.537237562152
 20
74.8550033569336
 30
0.0
  0
VERTEX
  8
COMBINADO H10 TERRENO copiar
 10
6687.888930546156
 20
74.89700317382812
 30
0.0
  0
VERTEX
  8
COMBINADO H10 TERRENO copiar
 10
6702.2406235301605
 20
75.04299926757812
 30
0.0
  0
VERTEX
  8
COMBINADO H10 TERRENO copiar
 10
6716.592316514166
 20
75.19599914550781
 30
0.0
  0
VERTEX
  8
COMBINADO H10 TERRENO copiar
 10
6730.94400949817
 20
75.302001953125
 30
0.0
  0
VERTEX
  8
COMBINADO H10 TERRENO copiar
 10
6745.295702482174
 20
75.48300170898438
 30
0.0
  0
VERTEX
  8
COMBINADO H10 TERRENO copiar
 10
6759.64739546618
 20
75.47599792480469
 30
0.0
  0
VERTEX
  8
COMBINADO H10 TERRENO copiar
 10
6773.999088450184
 20
75.38700103759766
 30
0.0
  0
VERTEX
  8
COMBINADO H10 TERRENO copiar
 10
6788.350781434188
 20
75.3489990234375
 30
0.0
  0
VERTEX
  8
COMBINADO H10 TERRENO copiar
 10
6802.702474418194
 20
75.33100128173828
 30
0.0
  0
VERTEX
  8
COMBINADO H10 TERRENO copiar
 10
6817.054167402198
 20
75.36699676513672
 30
0.0
  0
VERTEX
  8
COMBINADO H10 TERRENO copiar
 10
6831.405860386202
 20
75.44000244140625
 30
0.0
  0
VERTEX
  8
COMBINADO H10 TERRENO copiar
 10
6845.7575533702075
 20
75.65699768066406
 30
0.0
  0
VERTEX
  8
COMBINADO H10 TERRENO copiar
 10
6860.109246354212
 20
75.70999908447266
 30
0.0
  0
VERTEX
  8
COMBINADO H10 TERRENO copiar
 10
6874.460939338216
 20
75.88400268554688
 30
0.0
  0
VERTEX
  8
COMBINADO H10 TERRENO copiar
 10
6888.812632322221
 20
75.96199798583984
 30
0.0
  0
VERTEX
  8
COMBINADO H10 TERRENO copiar
 10
6903.164325306226
 20
76.11199951171875
 30
0.0
  0
VERTEX
  8
COMBINADO H10 TERRENO copiar
 10
6917.51601829023
 20
76.19100189208984
 30
0.0
  0
VERTEX
  8
COMBINADO H10 TERRENO copiar
 10
6931.867711274235
 20
76.2770004272461
 30
0.0
  0
VERTEX
  8
COMBINADO H10 TERRENO copiar
 10
6946.21940425824
 20
76.4520034790039
 30
0.0
  0
VERTEX
  8
COMBINADO H10 TERRENO copiar
 10
6960.571097242244
 20
76.53700256347656
 30
0.0
  0
VERTEX
  8
COMBINADO H10 TERRENO copiar
 10
6974.922790226249
 20
76.68399810791016
 30
0.0
  0
VERTEX
  8
COMBINADO H10 TERRENO copiar
 10
6989.2744832102535
 20
76.70700073242188
 30
0.0
  0
VERTEX
  8
COMBINADO H10 TERRENO copiar
 10
7003.626176194258
 20
76.83699798583984
 30
0.0
  0
VERTEX
  8
COMBINADO H10 TERRENO copiar
 10
7017.977869178262
 20
76.88999938964844
 30
0.0
  0
VERTEX
  8
COMBINADO H10 TERRENO copiar
 10
7032.329562162267
 20
76.9280014038086
 30
0.0
  0
VERTEX
  8
COMBINADO H10 TERRENO copiar
 10
7046.681255146272
 20
76.9530029296875
 30
0.0
  0
VERTEX
  8
COMBINADO H10 TERRENO copiar
 10
7061.032948130276
 20
76.95899963378906
 30
0.0
  0
VERTEX
  8
COMBINADO H10 TERRENO copiar
 10
7075.384641114281
 20
77.04299926757812
 30
0.0
  0
VERTEX
  8
COMBINADO H10 TERRENO copiar
 10
7089.736334098286
 20
77.1259994506836
 30
0.0
  0
VERTEX
  8
COMBINADO H10 TERRENO copiar
 10
7104.08802708229
 20
77.30799865722656
 30
0.0
  0
VERTEX
  8
COMBINADO H10 TERRENO copiar
 10
7118.439720066295
 20
77.56700134277344
 30
0.0
  0
VERTEX
  8
COMBINADO H10 TERRENO copiar
 10
7132.7914130502995
 20
77.58699798583984
 30
0.0
  0
VERTEX
  8
COMBINADO H10 TERRENO copiar
 10
7147.143106034304
 20
77.61900329589844
 30
0.0
  0
VERTEX
  8
COMBINADO H10 TERRENO copiar
 10
7161.494799018309
 20
77.66200256347656
 30
0.0
  0
VERTEX
  8
COMBINADO H10 TERRENO copiar
 10
7175.846492002313
 20
77.82499694824219
 30
0.0
  0
VERTEX
  8
COMBINADO H10 TERRENO copiar
 10
7190.198184986318
 20
78.04499816894531
 30
0.0
  0
VERTEX
  8
COMBINADO H10 TERRENO copiar
 10
7204.549877970323
 20
78.70899963378906
 30
0.0
  0
VERTEX
  8
COMBINADO H10 TERRENO copiar
 10
7218.901570954327
 20
79.08799743652344
 30
0.0
  0
VERTEX
  8
COMBINADO H10 TERRENO copiar
 10
7233.253263938332
 20
80.0199966430664
 30
0.0
  0
VERTEX
  8
COMBINADO H10 TERRENO copiar
 10
7247.604956922337
 20
80.41600036621094
 30
0.0
  0
VERTEX
  8
COMBINADO H10 TERRENO copiar
 10
7261.956649906341
 20
80.66699981689453
 30
0.0
  0
VERTEX
  8
COMBINADO H10 TERRENO copiar
 10
7276.308342890346
 20
80.59600067138672
 30
0.0
  0
VERTEX
  8
COMBINADO H10 TERRENO copiar
 10
7290.660035874351
 20
80.4800033569336
 30
0.0
  0
VERTEX
  8
COMBINADO H10 TERRENO copiar
 10
7305.011728858355
 20
79.8740005493164
 30
0.0
  0
VERTEX
  8
COMBINADO H10 TERRENO copiar
 10
7319.3634218423595
 20
79.9020004272461
 30
0.0
  0
VERTEX
  8
COMBINADO H10 TERRENO copiar
 10
7333.715114826365
 20
80.5260009765625
 30
0.0
  0
VERTEX
  8
COMBINADO H10 TERRENO copiar
 10
7348.066807810369
 20
80.64900207519531
 30
0.0
  0
VERTEX
  8
COMBINADO H10 TERRENO copiar
 10
7362.418500794373
 20
80.6240005493164
 30
0.0
  0
VERTEX
  8
COMBINADO H10 TERRENO copiar
 10
7376.770193778379
 20
80.51799774169922
 30
0.0
  0
VERTEX
  8
COMBINADO H10 TERRENO copiar
 10
7391.121886762383
 20
80.50299835205078
 30
0.0
  0
VERTEX
  8
COMBINADO H10 TERRENO copiar
 10
7405.473579746387
 20
80.59500122070312
 30
0.0
  0
VERTEX
  8
COMBINADO H10 TERRENO copiar
 10
7419.8252727303925
 20
80.63899993896484
 30
0.0
  0
VERTEX
  8
COMBINADO H10 TERRENO copiar
 10
7434.176965714397
 20
80.7490005493164
 30
0.0
  0
VERTEX
  8
COMBINADO H10 TERRENO copiar
 10
7448.528658698401
 20
80.85199737548828
 30
0.0
  0
VERTEX
  8
COMBINADO H10 TERRENO copiar
 10
7462.880351682406
 20
80.98600006103516
 30
0.0
  0
VERTEX
  8
COMBINADO H10 TERRENO copiar
 10
7477.232044666411
 20
81.27200317382812
 30
0.0
  0
VERTEX
  8
COMBINADO H10 TERRENO copiar
 10
7491.583737650415
 20
81.4219970703125
 30
0.0
  0
VERTEX
  8
COMBINADO H10 TERRENO copiar
 10
7505.93543063442
 20
81.74099731445312
 30
0.0
  0
VERTEX
  8
COMBINADO H10 TERRENO copiar
 10
7520.287123618425
 20
81.9729995727539
 30
0.0
  0
VERTEX
  8
COMBINADO H10 TERRENO copiar
 10
7534.638816602429
 20
82.25800323486328
 30
0.0
  0
VERTEX
  8
COMBINADO H10 TERRENO copiar
 10
7548.990509586434
 20
82.3759994506836
 30
0.0
  0
VERTEX
  8
COMBINADO H10 TERRENO copiar
 10
7563.3422025704385
 20
82.47699737548828
 30
0.0
  0
VERTEX
  8
COMBINADO H10 TERRENO copiar
 10
7577.693895554443
 20
82.70099639892578
 30
0.0
  0
VERTEX
  8
COMBINADO H10 TERRENO copiar
 10
7592.045588538448
 20
82.87000274658203
 30
0.0
  0
VERTEX
  8
COMBINADO H10 TERRENO copiar
 10
7606.397281522452
 20
83.37899780273438
 30
0.0
  0
VERTEX
  8
COMBINADO H10 TERRENO copiar
 10
7620.748974506457
 20
83.69000244140625
 30
0.0
  0
VERTEX
  8
COMBINADO H10 TERRENO copiar
 10
7635.100667490462
 20
84.22599792480469
 30
0.0
  0
VERTEX
  8
COMBINADO H10 TERRENO copiar
 10
7649.452360474466
 20
84.4000015258789
 30
0.0
  0
VERTEX
  8
COMBINADO H10 TERRENO copiar
 10
7663.804053458471
 20
84.47599792480469
 30
0.0
  0
VERTEX
  8
COMBINADO H10 TERRENO copiar
 10
7678.155746442476
 20
84.60800170898438
 30
0.0
  0
VERTEX
  8
COMBINADO H10 TERRENO copiar
 10
7692.50743942648
 20
84.75299835205078
 30
0.0
  0
VERTEX
  8
COMBINADO H10 TERRENO copiar
 10
7706.859132410485
 20
85.13500213623047
 30
0.0
  0
VERTEX
  8
COMBINADO H10 TERRENO copiar
 10
7721.210825394489
 20
85.29100036621094
 30
0.0
  0
VERTEX
  8
COMBINADO H10 TERRENO copiar
 10
7735.562518378494
 20
85.45099639892578
 30
0.0
  0
VERTEX
  8
COMBINADO H10 TERRENO copiar
 10
7749.9142113624985
 20
85.46700286865234
 30
0.0
  0
VERTEX
  8
COMBINADO H10 TERRENO copiar
 10
7764.265904346503
 20
85.45500183105469
 30
0.0
  0
VERTEX
  8
COMBINADO H10 TERRENO copiar
 10
7778.617597330508
 20
85.50399780273438
 30
0.0
  0
VERTEX
  8
COMBINADO H10 TERRENO copiar
 10
7792.969290314512
 20
85.46700286865234
 30
0.0
  0
VERTEX
  8
COMBINADO H10 TERRENO copiar
 10
7807.320983298517
 20
85.38500213623047
 30
0.0
  0
VERTEX
  8
COMBINADO H10 TERRENO copiar
 10
7821.672676282522
 20
85.37799835205078
 30
0.0
  0
VERTEX
  8
COMBINADO H10 TERRENO copiar
 10
7836.024369266526
 20
85.50399780273438
 30
0.0
  0
VERTEX
  8
COMBINADO H10 TERRENO copiar
 10
7850.376062250531
 20
85.64299774169922
 30
0.0
  0
VERTEX
  8
COMBINADO H10 TERRENO copiar
 10
7864.727755234536
 20
86.0
 30
0.0
  0
VERTEX
  8
COMBINADO H10 TERRENO copiar
 10
7879.07944821854
 20
86.19000244140625
 30
0.0
  0
VERTEX
  8
COMBINADO H10 TERRENO copiar
 10
7893.4311412025445
 20
86.38600158691406
 30
0.0
  0
VERTEX
  8
COMBINADO H10 TERRENO copiar
 10
7907.78283418655
 20
86.7979965209961
 30
0.0
  0
VERTEX
  8
COMBINADO H10 TERRENO copiar
 10
7922.134527170554
 20
87.01300048828125
 30
0.0
  0
VERTEX
  8
COMBINADO H10 TERRENO copiar
 10
7936.486220154558
 20
87.32499694824219
 30
0.0
  0
VERTEX
  8
COMBINADO H10 TERRENO copiar
 10
7950.837913138564
 20
87.4020004272461
 30
0.0
  0
VERTEX
  8
COMBINADO H10 TERRENO copiar
 10
7965.189606122568
 20
87.48799896240234
 30
0.0
  0
VERTEX
  8
COMBINADO H10 TERRENO copiar
 10
7979.541299106572
 20
87.56099700927734
 30
0.0
  0
VERTEX
  8
COMBINADO H10 TERRENO copiar
 10
7993.8929920905775
 20
87.68599700927734
 30
0.0
  0
VERTEX
  8
COMBINADO H10 TERRENO copiar
 10
8008.244685074582
 20
88.06999969482422
 30
0.0
  0
VERTEX
  8
COMBINADO H10 TERRENO copiar
 10
8022.596378058586
 20
88.29399871826172
 30
0.0
  0
VERTEX
  8
COMBINADO H10 TERRENO copiar
 10
8036.948071042591
 20
88.86100006103516
 30
0.0
  0
VERTEX
  8
COMBINADO H10 TERRENO copiar
 10
8051.299764026596
 20
89.08699798583984
 30
0.0
  0
VERTEX
  8
COMBINADO H10 TERRENO copiar
 10
8065.6514570106
 20
89.4749984741211
 30
0.0
  0
VERTEX
  8
COMBINADO H10 TERRENO copiar
 10
8080.003149994605
 20
89.63899993896484
 30
0.0
  0
VERTEX
  8
COMBINADO H10 TERRENO copiar
 10
8094.35484297861
 20
89.78700256347656
 30
0.0
  0
VERTEX
  8
COMBINADO H10 TERRENO copiar
 10
8108.706535962614
 20
90.03500366210938
 30
0.0
  0
VERTEX
  8
COMBINADO H10 TERRENO copiar
 10
8123.058228946619
 20
90.13099670410156
 30
0.0
  0
VERTEX
  8
COMBINADO H10 TERRENO copiar
 10
8137.409921930624
 20
90.30599975585938
 30
0.0
  0
VERTEX
  8
COMBINADO H10 TERRENO copiar
 10
8151.761614914628
 20
90.41500091552734
 30
0.0
  0
VERTEX
  8
COMBINADO H10 TERRENO copiar
 10
8166.113307898633
 20
90.88500213623047
 30
0.0
  0
VERTEX
  8
COMBINADO H10 TERRENO copiar
 10
8180.4650008826375
 20
91.08999633789062
 30
0.0
  0
VERTEX
  8
COMBINADO H10 TERRENO copiar
 10
8194.816693866642
 20
91.31600189208984
 30
0.0
  0
VERTEX
  8
COMBINADO H10 TERRENO copiar
 10
8209.168386850646
 20
91.79499816894531
 30
0.0
  0
VERTEX
  8
COMBINADO H10 TERRENO copiar
 10
8223.52007983465
 20
92.05400085449219
 30
0.0
  0
VERTEX
  8
COMBINADO H10 TERRENO copiar
 10
8237.871772818657
 20
92.64299774169922
 30
0.0
  0
VERTEX
  8
COMBINADO H10 TERRENO copiar
 10
8252.223465802661
 20
92.95500183105469
 30
0.0
  0
VERTEX
  8
COMBINADO H10 TERRENO copiar
 10
8266.575158786665
 20
93.56700134277344
 30
0.0
  0
VERTEX
  8
COMBINADO H10 TERRENO copiar
 10
8280.92685177067
 20
93.86599731445312
 30
0.0
  0
VERTEX
  8
COMBINADO H10 TERRENO copiar
 10
8295.278544754674
 20
94.16899871826172
 30
0.0
  0
VERTEX
  8
COMBINADO H10 TERRENO copiar
 10
8309.630237738678
 20
94.88600158691406
 30
0.0
  0
VERTEX
  8
COMBINADO H10 TERRENO copiar
 10
8323.981930722684
 20
95.18499755859375
 30
0.0
  0
VERTEX
  8
COMBINADO H10 TERRENO copiar
 10
8338.333623706689
 20
95.73999786376953
 30
0.0
  0
VERTEX
  8
COMBINADO H10 TERRENO copiar
 10
8352.685316690693
 20
95.96600341796875
 30
0.0
  0
VERTEX
  8
COMBINADO H10 TERRENO copiar
 10
8367.037009674697
 20
96.26200103759766
 30
0.0
  0
VERTEX
  8
COMBINADO H10 TERRENO copiar
 10
8381.388702658702
 20
96.33499908447266
 30
0.0
  0
VERTEX
  8
COMBINADO H10 TERRENO copiar
 10
8395.740395642706
 20
96.3280029296875
 30
0.0
  0
VERTEX
  8
COMBINADO H10 TERRENO copiar
 10
8410.092088626712
 20
96.28399658203125
 30
0.0
  0
VERTEX
  8
COMBINADO H10 TERRENO copiar
 10
8424.443781610717
 20
96.28500366210938
 30
0.0
  0
VERTEX
  8
COMBINADO H10 TERRENO copiar
 10
8438.79547459472
 20
96.52899932861328
 30
0.0
  0
VERTEX
  8
COMBINADO H10 TERRENO copiar
 10
8453.147167578725
 20
96.80799865722656
 30
0.0
  0
VERTEX
  8
COMBINADO H10 TERRENO copiar
 10
8467.49886056273
 20
97.45700073242188
 30
0.0
  0
VERTEX
  8
COMBINADO H10 TERRENO copiar
 10
8481.850553546734
 20
97.78199768066406
 30
0.0
  0
VERTEX
  8
COMBINADO H10 TERRENO copiar
 10
8496.20224653074
 20
98.34500122070312
 30
0.0
  0
VERTEX
  8
COMBINADO H10 TERRENO copiar
 10
8510.553939514744
 20
98.61399841308594
 30
0.0
  0
VERTEX
  8
COMBINADO H10 TERRENO copiar
 10
8524.905632498749
 20
98.90899658203125
 30
0.0
  0
VERTEX
  8
COMBINADO H10 TERRENO copiar
 10
8539.257325482753
 20
99.58499908447266
 30
0.0
  0
VERTEX
  8
COMBINADO H10 TERRENO copiar
 10
8553.609018466757
 20
99.8949966430664
 30
0.0
  0
VERTEX
  8
COMBINADO H10 TERRENO copiar
 10
8567.960711450762
 20
100.23699951171875
 30
0.0
  0
VERTEX
  8
COMBINADO H10 TERRENO copiar
 10
8582.312404434768
 20
100.41200256347656
 30
0.0
  0
VERTEX
  8
COMBINADO H10 TERRENO copiar
 10
8596.664097418772
 20
100.81500244140625
 30
0.0
  0
VERTEX
  8
COMBINADO H10 TERRENO copiar
 10
8611.015790402776
 20
101.05400085449219
 30
0.0
  0
VERTEX
  8
COMBINADO H10 TERRENO copiar
 10
8625.36748338678
 20
101.29299926757812
 30
0.0
  0
VERTEX
  8
COMBINADO H10 TERRENO copiar
 10
8639.719176370785
 20
101.71499633789062
 30
0.0
  0
VERTEX
  8
COMBINADO H10 TERRENO copiar
 10
8654.07086935479
 20
101.92400360107422
 30
0.0
  0
VERTEX
  8
COMBINADO H10 TERRENO copiar
 10
8668.422562338796
 20
102.46800231933594
 30
0.0
  0
VERTEX
  8
COMBINADO H10 TERRENO copiar
 10
8682.7742553228
 20
102.80599975585938
 30
0.0
  0
VERTEX
  8
COMBINADO H10 TERRENO copiar
 10
8697.125948306804
 20
103.50900268554688
 30
0.0
  0
VERTEX
  8
COMBINADO H10 TERRENO copiar
 10
8711.477641290809
 20
103.7959976196289
 30
0.0
  0
VERTEX
  8
COMBINADO H10 TERRENO copiar
 10
8725.829334274813
 20
104.05000305175781
 30
0.0
  0
VERTEX
  8
COMBINADO H10 TERRENO copiar
 10
8740.181027258817
 20
104.49800109863281
 30
0.0
  0
VERTEX
  8
COMBINADO H10 TERRENO copiar
 10
8754.532720242822
 20
104.70500183105469
 30
0.0
  0
VERTEX
  8
COMBINADO H10 TERRENO copiar
 10
8768.884413226828
 20
105.1240005493164
 30
0.0
  0
VERTEX
  8
COMBINADO H10 TERRENO copiar
 10
8783.236106210832
 20
105.33799743652344
 30
0.0
  0
VERTEX
  8
COMBINADO H10 TERRENO copiar
 10
8797.587799194836
 20
105.7509994506836
 30
0.0
  0
VERTEX
  8
COMBINADO H10 TERRENO copiar
 10
8811.93949217884
 20
105.94999694824219
 30
0.0
  0
VERTEX
  8
COMBINADO H10 TERRENO copiar
 10
8826.291185162845
 20
106.19400024414062
 30
0.0
  0
VERTEX
  8
COMBINADO H10 TERRENO copiar
 10
8840.64287814685
 20
106.8489990234375
 30
0.0
  0
VERTEX
  8
COMBINADO H10 TERRENO copiar
 10
8854.994571130856
 20
107.22200012207031
 30
0.0
  0
VERTEX
  8
COMBINADO H10 TERRENO copiar
 10
8869.34626411486
 20
108.03099822998047
 30
0.0
  0
VERTEX
  8
COMBINADO H10 TERRENO copiar
 10
8883.697957098864
 20
108.46600341796875
 30
0.0
  0
VERTEX
  8
COMBINADO H10 TERRENO copiar
 10
8898.049650082869
 20
109.35800170898438
 30
0.0
  0
VERTEX
  8
COMBINADO H10 TERRENO copiar
 10
8912.401343066873
 20
109.802001953125
 30
0.0
  0
VERTEX
  8
COMBINADO H10 TERRENO copiar
 10
8926.753036050877
 20
110.2509994506836
 30
0.0
  0
VERTEX
  8
COMBINADO H10 TERRENO copiar
 10
8941.104729034883
 20
111.18499755859375
 30
0.0
  0
VERTEX
  8
COMBINADO H10 TERRENO copiar
 10
8955.456422018888
 20
111.71600341796875
 30
0.0
  0
VERTEX
  8
COMBINADO H10 TERRENO copiar
 10
8969.808115002892
 20
112.8290023803711
 30
0.0
  0
VERTEX
  8
COMBINADO H10 TERRENO copiar
 10
8984.159807986896
 20
113.43499755859375
 30
0.0
  0
VERTEX
  8
COMBINADO H10 TERRENO copiar
 10
8998.5115009709
 20
114.68499755859375
 30
0.0
  0
VERTEX
  8
COMBINADO H10 TERRENO copiar
 10
9012.863193954905
 20
115.3550033569336
 30
0.0
  0
VERTEX
  8
COMBINADO H10 TERRENO copiar
 10
9027.214886938911
 20
117.22799682617188
 30
0.0
  0
VERTEX
  8
COMBINADO H10 TERRENO copiar
 10
9041.566579922915
 20
118.46700286865234
 30
0.0
  0
VERTEX
  8
COMBINADO H10 TERRENO copiar
 10
9055.91827290692
 20
119.84500122070312
 30
0.0
  0
VERTEX
  8
COMBINADO H10 TERRENO copiar
 10
9070.269965890924
 20
123.07499694824219
 30
0.0
  0
VERTEX
  8
COMBINADO H10 TERRENO copiar
 10
9084.621658874928
 20
124.7020034790039
 30
0.0
  0
VERTEX
  8
COMBINADO H10 TERRENO copiar
 10
9098.973351858933
 20
127.96099853515625
 30
0.0
  0
VERTEX
  8
COMBINADO H10 TERRENO copiar
 10
9113.325044842939
 20
129.17599487304688
 30
0.0
  0
VERTEX
  8
COMBINADO H10 TERRENO copiar
 10
9127.676737826943
 20
130.6199951171875
 30
0.0
  0
VERTEX
  8
COMBINADO H10 TERRENO copiar
 10
9142.028430810948
 20
130.90499877929688
 30
0.0
  0
VERTEX
  8
COMBINADO H10 TERRENO copiar
 10
9156.380123794952
 20
130.95199584960938
 30
0.0
  0
VERTEX
  8
COMBINADO H10 TERRENO copiar
 10
9170.731816778956
 20
130.77099609375
 30
0.0
  0
VERTEX
  8
COMBINADO H10 TERRENO copiar
 10
9185.08350976296
 20
130.7740020751953
 30
0.0
  0
VERTEX
  8
COMBINADO H10 TERRENO copiar
 10
9199.435202746967
 20
131.35000610351562
 30
0.0
  0
VERTEX
  8
COMBINADO H10 TERRENO copiar
 10
9213.786895730971
 20
131.94500732421875
 30
0.0
  0
VERTEX
  8
COMBINADO H10 TERRENO copiar
 10
9228.138588714975
 20
131.86199951171875
 30
0.0
  0
VERTEX
  8
COMBINADO H10 TERRENO copiar
 10
9242.49028169898
 20
132.07200622558594
 30
0.0
  0
VERTEX
  8
COMBINADO H10 TERRENO copiar
 10
9256.841974682984
 20
132.01600646972656
 30
0.0
  0
VERTEX
  8
COMBINADO H10 TERRENO copiar
 10
9271.193667666988
 20
131.2729949951172
 30
0.0
  0
VERTEX
  8
COMBINADO H10 TERRENO copiar
 10
9285.545360650995
 20
130.7519989013672
 30
0.0
  0
VERTEX
  8
COMBINADO H10 TERRENO copiar
 10
9299.897053634999
 20
130.0229949951172
 30
0.0
  0
VERTEX
  8
COMBINADO H10 TERRENO copiar
 10
9314.248746619003
 20
129.875
 30
0.0
  0
VERTEX
  8
COMBINADO H10 TERRENO copiar
 10
9328.600439603008
 20
130.23800659179688
 30
0.0
  0
VERTEX
  8
COMBINADO H10 TERRENO copiar
 10
9342.952132587012
 20
130.76100158691406
 30
0.0
  0
VERTEX
  8
COMBINADO H10 TERRENO copiar
 10
9357.303825571016
 20
129.96299743652344
 30
0.0
  0
VERTEX
  8
COMBINADO H10 TERRENO copiar
 10
9371.65551855502
 20
131.05999755859375
 30
0.0
  0
VERTEX
  8
COMBINADO H10 TERRENO copiar
 10
9386.007211539027
 20
131.43800354003906
 30
0.0
  0
VERTEX
  8
COMBINADO H10 TERRENO copiar
 10
9400.358904523031
 20
131.89199829101562
 30
0.0
  0
VERTEX
  8
COMBINADO H10 TERRENO copiar
 10
9414.710597507035
 20
131.9770050048828
 30
0.0
  0
VERTEX
  8
COMBINADO H10 TERRENO copiar
 10
9429.06229049104
 20
132.0050048828125
 30
0.0
  0
VERTEX
  8
COMBINADO H10 TERRENO copiar
 10
9443.413983475044
 20
132.00799560546875
 30
0.0
  0
VERTEX
  8
COMBINADO H10 TERRENO copiar
 10
9457.765676459048
 20
131.98599243164062
 30
0.0
  0
VERTEX
  8
COMBINADO H10 TERRENO copiar
 10
9472.117369443054
 20
131.406005859375
 30
0.0
  0
VERTEX
  8
COMBINADO H10 TERRENO copiar
 10
9486.469062427059
 20
130.15699768066406
 30
0.0
  0
VERTEX
  8
COMBINADO H10 TERRENO copiar
 10
9500.820755411063
 20
131.47799682617188
 30
0.0
  0
VERTEX
  8
COMBINADO H10 TERRENO copiar
 10
9515.172448395067
 20
132.10000610351562
 30
0.0
  0
VERTEX
  8
COMBINADO H10 TERRENO copiar
 10
9529.524141379072
 20
132.4029998779297
 30
0.0
  0
VERTEX
  8
COMBINADO H10 TERRENO copiar
 10
9543.875834363076
 20
132.60499572753906
 30
0.0
  0
VERTEX
  8
COMBINADO H10 TERRENO copiar
 10
9558.227527347082
 20
133.1490020751953
 30
0.0
  0
VERTEX
  8
COMBINADO H10 TERRENO copiar
 10
9572.579220331087
 20
133.9550018310547
 30
0.0
  0
VERTEX
  8
COMBINADO H10 TERRENO copiar
 10
9586.930913315091
 20
133.91600036621094
 30
0.0
  0
VERTEX
  8
COMBINADO H10 TERRENO copiar
 10
9601.282606299095
 20
134.58399963378906
 30
0.0
  0
VERTEX
  8
COMBINADO H10 TERRENO copiar
 10
9615.6342992831
 20
136.19700622558594
 30
0.0
  0
VERTEX
  8
COMBINADO H10 TERRENO copiar
 10
9629.985992267104
 20
137.94500732421875
 30
0.0
  0
VERTEX
  8
COMBINADO H10 TERRENO copiar
 10
9644.33768525111
 20
138.68600463867188
 30
0.0
  0
VERTEX
  8
COMBINADO H10 TERRENO copiar
 10
9658.689378235114
 20
139.94000244140625
 30
0.0
  0
VERTEX
  8
COMBINADO H10 TERRENO copiar
 10
9673.041071219119
 20
140.73500061035156
 30
0.0
  0
VERTEX
  8
COMBINADO H10 TERRENO copiar
 10
9687.392764203123
 20
141.75100708007812
 30
0.0
  0
VERTEX
  8
COMBINADO H10 TERRENO copiar
 10
9701.744457187127
 20
143.8979949951172
 30
0.0
  0
VERTEX
  8
COMBINADO H10 TERRENO copiar
 10
9716.096150171132
 20
144.78700256347656
 30
0.0
  0
VERTEX
  8
COMBINADO H10 TERRENO copiar
 10
9730.447843155138
 20
145.88999938964844
 30
0.0
  0
VERTEX
  8
COMBINADO H10 TERRENO copiar
 10
9744.799536139142
 20
144.60299682617188
 30
0.0
  0
VERTEX
  8
COMBINADO H10 TERRENO copiar
 10
9759.151229123147
 20
144.37100219726562
 30
0.0
  0
VERTEX
  8
COMBINADO H10 TERRENO copiar
 10
9773.50292210715
 20
144.2949981689453
 30
0.0
  0
VERTEX
  8
COMBINADO H10 TERRENO copiar
 10
9787.854615091155
 20
144.28799438476562
 30
0.0
  0
VERTEX
  8
COMBINADO H10 TERRENO copiar
 10
9802.20630807516
 20
145.00799560546875
 30
0.0
  0
VERTEX
  8
COMBINADO H10 TERRENO copiar
 10
9816.558001059166
 20
146.07000732421875
 30
0.0
  0
VERTEX
  8
COMBINADO H10 TERRENO copiar
 10
9830.90969404317
 20
148.32200622558594
 30
0.0
  0
VERTEX
  8
COMBINADO H10 TERRENO copiar
 10
9845.261387027174
 20
148.08999633789062
 30
0.0
  0
VERTEX
  8
COMBINADO H10 TERRENO copiar
 10
9859.613080011179
 20
147.36399841308594
 30
0.0
  0
VERTEX
  8
COMBINADO H10 TERRENO copiar
 10
9873.964772995183
 20
146.86599731445312
 30
0.0
  0
VERTEX
  8
COMBINADO H10 TERRENO copiar
 10
9888.316465979187
 20
145.36000061035156
 30
0.0
  0
VERTEX
  8
COMBINADO H10 TERRENO copiar
 10
9902.668158963193
 20
144.33900451660156
 30
0.0
  0
VERTEX
  8
COMBINADO H10 TERRENO copiar
 10
9917.019851947198
 20
144.05799865722656
 30
0.0
  0
VERTEX
  8
COMBINADO H10 TERRENO copiar
 10
9931.371544931202
 20
143.468994140625
 30
0.0
  0
VERTEX
  8
COMBINADO H10 TERRENO copiar
 10
9945.723237915206
 20
143.18499755859375
 30
0.0
  0
VERTEX
  8
COMBINADO H10 TERRENO copiar
 10
9960.07493089921
 20
143.36500549316406
 30
0.0
  0
VERTEX
  8
COMBINADO H10 TERRENO copiar
 10
9974.426623883215
 20
143.8939971923828
 30
0.0
  0
VERTEX
  8
COMBINADO H10 TERRENO copiar
 10
9988.778316867221
 20
144.6909942626953
 30
0.0
  0
VERTEX
  8
COMBINADO H10 TERRENO copiar
 10
10003.130009851226
 20
146.4669952392578
 30
0.0
  0
VERTEX
  8
COMBINADO H10 TERRENO copiar
 10
10017.48170283523
 20
148.34500122070312
 30
0.0
  0
VERTEX
  8
COMBINADO H10 TERRENO copiar
 10
10031.833395819234
 20
150.51100158691406
 30
0.0
  0
VERTEX
  8
COMBINADO H10 TERRENO copiar
 10
10046.185088803239
 20
151.0679931640625
 30
0.0
  0
VERTEX
  8
COMBINADO H10 TERRENO copiar
 10
10060.536781787243
 20
151.59500122070312
 30
0.0
  0
VERTEX
  8
COMBINADO H10 TERRENO copiar
 10
10074.888474771247
 20
151.83599853515625
 30
0.0
  0
VERTEX
  8
COMBINADO H10 TERRENO copiar
 10
10089.240167755253
 20
152.22900390625
 30
0.0
  0
VERTEX
  8
COMBINADO H10 TERRENO copiar
 10
10103.591860739258
 20
153.20700073242188
 30
0.0
  0
VERTEX
  8
COMBINADO H10 TERRENO copiar
 10
10117.943553723262
 20
153.46200561523438
 30
0.0
  0
VERTEX
  8
COMBINADO H10 TERRENO copiar
 10
10132.295246707266
 20
154.21600341796875
 30
0.0
  0
VERTEX
  8
COMBINADO H10 TERRENO copiar
 10
10146.64693969127
 20
155.50399780273438
 30
0.0
  0
VERTEX
  8
COMBINADO H10 TERRENO copiar
 10
10160.998632675275
 20
156.68699645996094
 30
0.0
  0
VERTEX
  8
COMBINADO H10 TERRENO copiar
 10
10175.350325659281
 20
157.44400024414062
 30
0.0
  0
VERTEX
  8
COMBINADO H10 TERRENO copiar
 10
10189.702018643286
 20
158.17300415039062
 30
0.0
  0
VERTEX
  8
COMBINADO H10 TERRENO copiar
 10
10204.05371162729
 20
160.1750030517578
 30
0.0
  0
VERTEX
  8
COMBINADO H10 TERRENO copiar
 10
10218.405404611294
 20
160.9810028076172
 30
0.0
  0
VERTEX
  8
COMBINADO H10 TERRENO copiar
 10
10232.757097595299
 20
161.593994140625
 30
0.0
  0
VERTEX
  8
COMBINADO H10 TERRENO copiar
 10
10247.108790579303
 20
161.8459930419922
 30
0.0
  0
VERTEX
  8
COMBINADO H10 TERRENO copiar
 10
10261.460483563309
 20
161.8090057373047
 30
0.0
  0
VERTEX
  8
COMBINADO H10 TERRENO copiar
 10
10275.812176547313
 20
162.822998046875
 30
0.0
  0
VERTEX
  8
COMBINADO H10 TERRENO copiar
 10
10290.163869531318
 20
162.59500122070312
 30
0.0
  0
VERTEX
  8
COMBINADO H10 TERRENO copiar
 10
10304.515562515322
 20
162.4669952392578
 30
0.0
  0
VERTEX
  8
COMBINADO H10 TERRENO copiar
 10
10318.867255499326
 20
162.37399291992188
 30
0.0
  0
VERTEX
  8
COMBINADO H10 TERRENO copiar
 10
10333.21894848333
 20
162.531005859375
 30
0.0
  0
VERTEX
  8
COMBINADO H10 TERRENO copiar
 10
10347.570641467337
 20
162.33900451660156
 30
0.0
  0
VERTEX
  8
COMBINADO H10 TERRENO copiar
 10
10361.922334451341
 20
161.50799560546875
 30
0.0
  0
VERTEX
  8
COMBINADO H10 TERRENO copiar
 10
10376.274027435345
 20
160.843994140625
 30
0.0
  0
VERTEX
  8
COMBINADO H10 TERRENO copiar
 10
10390.62572041935
 20
159.6529998779297
 30
0.0
  0
VERTEX
  8
COMBINADO H10 TERRENO copiar
 10
10404.977413403354
 20
158.58700561523438
 30
0.0
  0
VERTEX
  8
COMBINADO H10 TERRENO copiar
 10
10419.329106387358
 20
157.89199829101562
 30
0.0
  0
VERTEX
  8
COMBINADO H10 TERRENO copiar
 10
10433.680799371365
 20
156.39599609375
 30
0.0
  0
VERTEX
  8
COMBINADO H10 TERRENO copiar
 10
10448.032492355369
 20
155.781005859375
 30
0.0
  0
VERTEX
  8
COMBINADO H10 TERRENO copiar
 10
10462.384185339373
 20
154.9669952392578
 30
0.0
  0
VERTEX
  8
COMBINADO H10 TERRENO copiar
 10
10476.735878323378
 20
154.63900756835938
 30
0.0
  0
VERTEX
  8
COMBINADO H10 TERRENO copiar
 10
10491.087571307382
 20
154.0240020751953
 30
0.0
  0
VERTEX
  8
COMBINADO H10 TERRENO copiar
 10
10505.439264291386
 20
153.6580047607422
 30
0.0
  0
VERTEX
  8
COMBINADO H10 TERRENO copiar
 10
10519.790957275392
 20
153.322998046875
 30
0.0
  0
VERTEX
  8
COMBINADO H10 TERRENO copiar
 10
10534.142650259397
 20
152.54600524902344
 30
0.0
  0
VERTEX
  8
COMBINADO H10 TERRENO copiar
 10
10548.494343243401
 20
152.29600524902344
 30
0.0
  0
VERTEX
  8
COMBINADO H10 TERRENO copiar
 10
10562.846036227405
 20
151.99600219726562
 30
0.0
  0
VERTEX
  8
COMBINADO H10 TERRENO copiar
 10
10577.19772921141
 20
151.9770050048828
 30
0.0
  0
VERTEX
  8
COMBINADO H10 TERRENO copiar
 10
10591.549422195414
 20
151.8040008544922
 30
0.0
  0
VERTEX
  8
COMBINADO H10 TERRENO copiar
 10
10605.90111517942
 20
151.51300048828125
 30
0.0
  0
VERTEX
  8
COMBINADO H10 TERRENO copiar
 10
10620.252808163425
 20
151.03199768066406
 30
0.0
  0
VERTEX
  8
COMBINADO H10 TERRENO copiar
 10
10634.604501147429
 20
149.7949981689453
 30
0.0
  0
VERTEX
  8
COMBINADO H10 TERRENO copiar
 10
10648.956194131433
 20
149.11700439453125
 30
0.0
  0
VERTEX
  8
COMBINADO H10 TERRENO copiar
 10
10663.307887115438
 20
148.01199340820312
 30
0.0
  0
VERTEX
  8
COMBINADO H10 TERRENO copiar
 10
10677.659580099442
 20
147.4510040283203
 30
0.0
  0
VERTEX
  8
COMBINADO H10 TERRENO copiar
 10
10692.011273083446
 20
146.3489990234375
 30
0.0
  0
VERTEX
  8
COMBINADO H10 TERRENO copiar
 10
10706.362966067452
 20
145.80299377441406
 30
0.0
  0
VERTEX
  8
COMBINADO H10 TERRENO copiar
 10
10720.714659051457
 20
145.4010009765625
 30
0.0
  0
VERTEX
  8
COMBINADO H10 TERRENO copiar
 10
10735.066352035461
 20
145.1699981689453
 30
0.0
  0
VERTEX
  8
COMBINADO H10 TERRENO copiar
 10
10749.418045019465
 20
144.9709930419922
 30
0.0
  0
VERTEX
  8
COMBINADO H10 TERRENO copiar
 10
10763.76973800347
 20
144.45899963378906
 30
0.0
  0
VERTEX
  8
COMBINADO H10 TERRENO copiar
 10
10778.121430987474
 20
144.14199829101562
 30
0.0
  0
VERTEX
  8
COMBINADO H10 TERRENO copiar
 10
10792.47312397148
 20
143.29400634765625
 30
0.0
  0
VERTEX
  8
COMBINADO H10 TERRENO copiar
 10
10806.824816955484
 20
142.49400329589844
 30
0.0
  0
VERTEX
  8
COMBINADO H10 TERRENO copiar
 10
10821.176509939489
 20
141.52499389648438
 30
0.0
  0
VERTEX
  8
COMBINADO H10 TERRENO copiar
 10
10835.528202923493
 20
141.3419952392578
 30
0.0
  0
VERTEX
  8
COMBINADO H10 TERRENO copiar
 10
10849.879895907497
 20
141.2550048828125
 30
0.0
  0
VERTEX
  8
COMBINADO H10 TERRENO copiar
 10
10864.231588891502
 20
141.072998046875
 30
0.0
  0
VERTEX
  8
COMBINADO H10 TERRENO copiar
 10
10878.583281875508
 20
140.92599487304688
 30
0.0
  0
VERTEX
  8
COMBINADO H10 TERRENO copiar
 10
10892.934974859512
 20
140.2969970703125
 30
0.0
  0
VERTEX
  8
COMBINADO H10 TERRENO copiar
 10
10907.286667843517
 20
140.2899932861328
 30
0.0
  0
VERTEX
  8
COMBINADO H10 TERRENO copiar
 10
10921.638360827521
 20
140.50100708007812
 30
0.0
  0
VERTEX
  8
COMBINADO H10 TERRENO copiar
 10
10935.990053811525
 20
140.7790069580078
 30
0.0
  0
VERTEX
  8
COMBINADO H10 TERRENO copiar
 10
10950.34174679553
 20
140.75399780273438
 30
0.0
  0
VERTEX
  8
COMBINADO H10 TERRENO copiar
 10
10964.693439779536
 20
140.76499938964844
 30
0.0
  0
VERTEX
  8
COMBINADO H10 TERRENO copiar
 10
10979.04513276354
 20
140.8300018310547
 30
0.0
  0
VERTEX
  8
COMBINADO H10 TERRENO copiar
 10
10993.396825747544
 20
141.08799743652344
 30
0.0
  0
VERTEX
  8
COMBINADO H10 TERRENO copiar
 10
11007.748518731549
 20
141.20899963378906
 30
0.0
  0
VERTEX
  8
COMBINADO H10 TERRENO copiar
 10
11022.100211715553
 20
141.4709930419922
 30
0.0
  0
VERTEX
  8
COMBINADO H10 TERRENO copiar
 10
11036.451904699557
 20
141.50799560546875
 30
0.0
  0
VERTEX
  8
COMBINADO H10 TERRENO copiar
 10
11050.803597683564
 20
141.36500549316406
 30
0.0
  0
VERTEX
  8
COMBINADO H10 TERRENO copiar
 10
11065.155290667568
 20
142.5330047607422
 30
0.0
  0
VERTEX
  8
COMBINADO H10 TERRENO copiar
 10
11079.506983651572
 20
142.54400634765625
 30
0.0
  0
VERTEX
  8
COMBINADO H10 TERRENO copiar
 10
11093.858676635577
 20
142.5050048828125
 30
0.0
  0
VERTEX
  8
COMBINADO H10 TERRENO copiar
 10
11108.21036961958
 20
142.57699584960938
 30
0.0
  0
VERTEX
  8
COMBINADO H10 TERRENO copiar
 10
11122.562062603585
 20
142.4709930419922
 30
0.0
  0
VERTEX
  8
COMBINADO H10 TERRENO copiar
 10
11136.913755587591
 20
142.30099487304688
 30
0.0
  0
VERTEX
  8
COMBINADO H10 TERRENO copiar
 10
11151.265448571596
 20
142.13800048828125
 30
0.0
  0
VERTEX
  8
COMBINADO H10 TERRENO copiar
 10
11165.6171415556
 20
141.78399658203125
 30
0.0
  0
VERTEX
  8
COMBINADO H10 TERRENO copiar
 10
11179.968834539604
 20
141.4669952392578
 30
0.0
  0
VERTEX
  8
COMBINADO H10 TERRENO copiar
 10
11194.320527523609
 20
139.85699462890625
 30
0.0
  0
VERTEX
  8
COMBINADO H10 TERRENO copiar
 10
11208.672220507613
 20
139.25799560546875
 30
0.0
  0
VERTEX
  8
COMBINADO H10 TERRENO copiar
 10
11223.02391349162
 20
138.2270050048828
 30
0.0
  0
VERTEX
  8
COMBINADO H10 TERRENO copiar
 10
11237.375606475623
 20
137.75399780273438
 30
0.0
  0
VERTEX
  8
COMBINADO H10 TERRENO copiar
 10
11251.727299459628
 20
137.33299255371094
 30
0.0
  0
VERTEX
  8
COMBINADO H10 TERRENO copiar
 10
11266.078992443632
 20
136.90499877929688
 30
0.0
  0
VERTEX
  8
COMBINADO H10 TERRENO copiar
 10
11280.430685427636
 20
136.5760040283203
 30
0.0
  0
VERTEX
  8
COMBINADO H10 TERRENO copiar
 10
11294.78237841164
 20
135.62399291992188
 30
0.0
  0
VERTEX
  8
COMBINADO H10 TERRENO copiar
 10
11309.134071395647
 20
135.28700256347656
 30
0.0
  0
VERTEX
  8
COMBINADO H10 TERRENO copiar
 10
11323.485764379651
 20
133.9290008544922
 30
0.0
  0
VERTEX
  8
COMBINADO H10 TERRENO copiar
 10
11337.837457363656
 20
133.6199951171875
 30
0.0
  0
VERTEX
  8
COMBINADO H10 TERRENO copiar
 10
11352.18915034766
 20
133.3280029296875
 30
0.0
  0
VERTEX
  8
COMBINADO H10 TERRENO copiar
 10
11366.540843331664
 20
132.8419952392578
 30
0.0
  0
VERTEX
  8
COMBINADO H10 TERRENO copiar
 10
11380.892536315669
 20
132.54600524902344
 30
0.0
  0
VERTEX
  8
COMBINADO H10 TERRENO copiar
 10
11395.244229299673
 20
131.85499572753906
 30
0.0
  0
VERTEX
  8
COMBINADO H10 TERRENO copiar
 10
11409.59592228368
 20
131.50799560546875
 30
0.0
  0
VERTEX
  8
COMBINADO H10 TERRENO copiar
 10
11423.947615267683
 20
130.8040008544922
 30
0.0
  0
VERTEX
  8
COMBINADO H10 TERRENO copiar
 10
11438.299308251688
 20
130.47500610351562
 30
0.0
  0
VERTEX
  8
COMBINADO H10 TERRENO copiar
 10
11452.651001235692
 20
129.8719940185547
 30
0.0
  0
VERTEX
  8
COMBINADO H10 TERRENO copiar
 10
11467.002694219696
 20
129.54600524902344
 30
0.0
  0
VERTEX
  8
COMBINADO H10 TERRENO copiar
 10
11481.3543872037
 20
129.33299255371094
 30
0.0
  0
VERTEX
  8
COMBINADO H10 TERRENO copiar
 10
11495.706080187707
 20
128.88600158691406
 30
0.0
  0
VERTEX
  8
COMBINADO H10 TERRENO copiar
 10
11510.057773171711
 20
129.0279998779297
 30
0.0
  0
VERTEX
  8
COMBINADO H10 TERRENO copiar
 10
11524.409466155716
 20
128.5970001220703
 30
0.0
  0
VERTEX
  8
COMBINADO H10 TERRENO copiar
 10
11538.76115913972
 20
129.33700561523438
 30
0.0
  0
VERTEX
  8
COMBINADO H10 TERRENO copiar
 10
11553.112852123724
 20
127.91600036621094
 30
0.0
  0
VERTEX
  8
COMBINADO H10 TERRENO copiar
 10
11567.464545107729
 20
126.45800018310547
 30
0.0
  0
VERTEX
  8
COMBINADO H10 TERRENO copiar
 10
11581.816238091735
 20
127.16500091552734
 30
0.0
  0
VERTEX
  8
COMBINADO H10 TERRENO copiar
 10
11596.167931075739
 20
127.98100280761719
 30
0.0
  0
VERTEX
  8
COMBINADO H10 TERRENO copiar
 10
11610.519624059743
 20
128.4010009765625
 30
0.0
  0
VERTEX
  8
COMBINADO H10 TERRENO copiar
 10
11624.871317043748
 20
129.5279998779297
 30
0.0
  0
VERTEX
  8
COMBINADO H10 TERRENO copiar
 10
11639.223010027752
 20
130.0659942626953
 30
0.0
  0
VERTEX
  8
COMBINADO H10 TERRENO copiar
 10
11653.574703011756
 20
131.02099609375
 30
0.0
  0
VERTEX
  8
COMBINADO H10 TERRENO copiar
 10
11667.926395995763
 20
131.36700439453125
 30
0.0
  0
VERTEX
  8
COMBINADO H10 TERRENO copiar
 10
11682.278088979767
 20
131.56300354003906
 30
0.0
  0
VERTEX
  8
COMBINADO H10 TERRENO copiar
 10
11696.629781963771
 20
132.06100463867188
 30
0.0
  0
VERTEX
  8
COMBINADO H10 TERRENO copiar
 10
11710.981474947775
 20
132.77200317382812
 30
0.0
  0
VERTEX
  8
COMBINADO H10 TERRENO copiar
 10
11725.33316793178
 20
134.48399353027344
 30
0.0
  0
VERTEX
  8
COMBINADO H10 TERRENO copiar
 10
11739.684860915784
 20
134.96099853515625
 30
0.0
  0
VERTEX
  8
COMBINADO H10 TERRENO copiar
 10
11754.03655389979
 20
135.1269989013672
 30
0.0
  0
VERTEX
  8
COMBINADO H10 TERRENO copiar
 10
11768.388246883795
 20
134.6529998779297
 30
0.0
  0
VERTEX
  8
COMBINADO H10 TERRENO copiar
 10
11782.739939867799
 20
133.9499969482422
 30
0.0
  0
VERTEX
  8
COMBINADO H10 TERRENO copiar
 10
11797.091632851803
 20
133.031005859375
 30
0.0
  0
VERTEX
  8
COMBINADO H10 TERRENO copiar
 10
11811.443325835808
 20
132.39999389648438
 30
0.0
  0
VERTEX
  8
COMBINADO H10 TERRENO copiar
 10
11825.795018819812
 20
131.07000732421875
 30
0.0
  0
VERTEX
  8
COMBINADO H10 TERRENO copiar
 10
11840.146711803818
 20
131.16200256347656
 30
0.0
  0
VERTEX
  8
COMBINADO H10 TERRENO copiar
 10
11854.498404787822
 20
132.197998046875
 30
0.0
  0
VERTEX
  8
COMBINADO H10 TERRENO copiar
 10
11868.850097771827
 20
132.50999450683594
 30
0.0
  0
VERTEX
  8
COMBINADO H10 TERRENO copiar
 10
11883.201790755831
 20
132.9080047607422
 30
0.0
  0
VERTEX
  8
COMBINADO H10 TERRENO copiar
 10
11897.553483739835
 20
134.81700134277344
 30
0.0
  0
VERTEX
  8
COMBINADO H10 TERRENO copiar
 10
11911.90517672384
 20
135.6909942626953
 30
0.0
  0
VERTEX
  8
COMBINADO H10 TERRENO copiar
 10
11926.256869707846
 20
136.45700073242188
 30
0.0
  0
VERTEX
  8
COMBINADO H10 TERRENO copiar
 10
11940.60856269185
 20
136.62399291992188
 30
0.0
  0
VERTEX
  8
COMBINADO H10 TERRENO copiar
 10
11954.960255675855
 20
136.76300048828125
 30
0.0
  0
VERTEX
  8
COMBINADO H10 TERRENO copiar
 10
11969.311948659859
 20
136.61300659179688
 30
0.0
  0
VERTEX
  8
COMBINADO H10 TERRENO copiar
 10
11983.663641643863
 20
137.0749969482422
 30
0.0
  0
VERTEX
  8
COMBINADO H10 TERRENO copiar
 10
11998.015334627868
 20
136.40699768066406
 30
0.0
  0
VERTEX
  8
COMBINADO H10 TERRENO copiar
 10
12012.367027611874
 20
136.39700317382812
 30
0.0
  0
VERTEX
  8
COMBINADO H10 TERRENO copiar
 10
12026.718720595878
 20
137.52099609375
 30
0.0
  0
VERTEX
  8
COMBINADO H10 TERRENO copiar
 10
12041.070413579882
 20
138.1739959716797
 30
0.0
  0
VERTEX
  8
COMBINADO H10 TERRENO copiar
 10
12055.422106563887
 20
138.97999572753906
 30
0.0
  0
VERTEX
  8
COMBINADO H10 TERRENO copiar
 10
12069.773799547891
 20
138.9929962158203
 30
0.0
  0
VERTEX
  8
COMBINADO H10 TERRENO copiar
 10
12084.125492531895
 20
138.2220001220703
 30
0.0
  0
VERTEX
  8
COMBINADO H10 TERRENO copiar
 10
12098.4771855159
 20
137.7550048828125
 30
0.0
  0
VERTEX
  8
COMBINADO H10 TERRENO copiar
 10
12112.828878499906
 20
137.61500549316406
 30
0.0
  0
VERTEX
  8
COMBINADO H10 TERRENO copiar
 10
12127.18057148391
 20
136.5749969482422
 30
0.0
  0
VERTEX
  8
COMBINADO H10 TERRENO copiar
 10
12141.532264467915
 20
136.05099487304688
 30
0.0
  0
VERTEX
  8
COMBINADO H10 TERRENO copiar
 10
12155.883957451919
 20
135.0050048828125
 30
0.0
  0
VERTEX
  8
COMBINADO H10 TERRENO copiar
 10
12170.235650435923
 20
134.4949951171875
 30
0.0
  0
VERTEX
  8
COMBINADO H10 TERRENO copiar
 10
12184.587343419927
 20
134.031005859375
 30
0.0
  0
VERTEX
  8
COMBINADO H10 TERRENO copiar
 10
12198.939036403934
 20
134.36199951171875
 30
0.0
  0
VERTEX
  8
COMBINADO H10 TERRENO copiar
 10
12213.290729387938
 20
134.87899780273438
 30
0.0
  0
VERTEX
  8
COMBINADO H10 TERRENO copiar
 10
12227.642422371942
 20
136.06199645996094
 30
0.0
  0
VERTEX
  8
COMBINADO H10 TERRENO copiar
 10
12241.994115355947
 20
136.91200256347656
 30
0.0
  0
VERTEX
  8
COMBINADO H10 TERRENO copiar
 10
12256.345808339951
 20
138.27099609375
 30
0.0
  0
VERTEX
  8
COMBINADO H10 TERRENO copiar
 10
12270.697501323955
 20
138.86300659179688
 30
0.0
  0
VERTEX
  8
COMBINADO H10 TERRENO copiar
 10
12285.049194307961
 20
139.75599670410156
 30
0.0
  0
VERTEX
  8
COMBINADO H10 TERRENO copiar
 10
12299.400887291966
 20
140.23300170898438
 30
0.0
  0
VERTEX
  8
COMBINADO H10 TERRENO copiar
 10
12313.75258027597
 20
140.7010040283203
 30
0.0
  0
VERTEX
  8
COMBINADO H10 TERRENO copiar
 10
12328.104273259974
 20
141.16200256347656
 30
0.0
  0
VERTEX
  8
COMBINADO H10 TERRENO copiar
 10
12342.455966243979
 20
141.052001953125
 30
0.0
  0
VERTEX
  8
COMBINADO H10 TERRENO copiar
 10
12356.807659227983
 20
140.72799682617188
 30
0.0
  0
VERTEX
  8
COMBINADO H10 TERRENO copiar
 10
12371.15935221199
 20
140.58299255371094
 30
0.0
  0
VERTEX
  8
COMBINADO H10 TERRENO copiar
 10
12385.511045195994
 20
140.33599853515625
 30
0.0
  0
VERTEX
  8
COMBINADO H10 TERRENO copiar
 10
12399.862738179998
 20
140.00100708007812
 30
0.0
  0
VERTEX
  8
COMBINADO H10 TERRENO copiar
 10
12414.214431164002
 20
139.66000366210938
 30
0.0
  0
VERTEX
  8
COMBINADO H10 TERRENO copiar
 10
12428.566124148007
 20
138.98800659179688
 30
0.0
  0
VERTEX
  8
COMBINADO H10 TERRENO copiar
 10
12442.91781713201
 20
138.63900756835938
 30
0.0
  0
VERTEX
  8
COMBINADO H10 TERRENO copiar
 10
12457.269510116017
 20
138.1929931640625
 30
0.0
  0
VERTEX
  8
COMBINADO H10 TERRENO copiar
 10
12471.621203100021
 20
138.23399353027344
 30
0.0
  0
VERTEX
  8
COMBINADO H10 TERRENO copiar
 10
12485.972896084026
 20
139.197998046875
 30
0.0
  0
VERTEX
  8
COMBINADO H10 TERRENO copiar
 10
12500.32458906803
 20
139.51699829101562
 30
0.0
  0
VERTEX
  8
COMBINADO H10 TERRENO copiar
 10
12514.676282052034
 20
139.6959991455078
 30
0.0
  0
VERTEX
  8
COMBINADO H10 TERRENO copiar
 10
12529.027975036039
 20
139.66700744628906
 30
0.0
  0
VERTEX
  8
COMBINADO H10 TERRENO copiar
 10
12543.379668020045
 20
139.66600036621094
 30
0.0
  0
VERTEX
  8
COMBINADO H10 TERRENO copiar
 10
12557.73136100405
 20
139.6529998779297
 30
0.0
  0
VERTEX
  8
COMBINADO H10 TERRENO copiar
 10
12572.083053988054
 20
139.41299438476562
 30
0.0
  0
VERTEX
  8
COMBINADO H10 TERRENO copiar
 10
12586.434746972058
 20
138.60800170898438
 30
0.0
  0
VERTEX
  8
COMBINADO H10 TERRENO copiar
 10
12600.786439956062
 20
138.15699768066406
 30
0.0
  0
VERTEX
  8
COMBINADO H10 TERRENO copiar
 10
12615.138132940066
 20
137.65499877929688
 30
0.0
  0
VERTEX
  8
COMBINADO H10 TERRENO copiar
 10
12629.489825924073
 20
136.3000030517578
 30
0.0
  0
VERTEX
  8
COMBINADO H10 TERRENO copiar
 10
12643.841518908077
 20
135.2469940185547
 30
0.0
  0
VERTEX
  8
COMBINADO H10 TERRENO copiar
 10
12658.193211892081
 20
134.5970001220703
 30
0.0
  0
VERTEX
  8
COMBINADO H10 TERRENO copiar
 10
12672.544904876086
 20
134.47500610351562
 30
0.0
  0
VERTEX
  8
COMBINADO H10 TERRENO copiar
 10
12686.89659786009
 20
134.4320068359375
 30
0.0
  0
VERTEX
  8
COMBINADO H10 TERRENO copiar
 10
12701.248290844094
 20
134.86599731445312
 30
0.0
  0
VERTEX
  8
COMBINADO H10 TERRENO copiar
 10
12715.599983828099
 20
136.86199951171875
 30
0.0
  0
VERTEX
  8
COMBINADO H10 TERRENO copiar
 10
12729.951676812105
 20
137.6580047607422
 30
0.0
  0
VERTEX
  8
COMBINADO H10 TERRENO copiar
 10
12744.30336979611
 20
138.13800048828125
 30
0.0
  0
VERTEX
  8
COMBINADO H10 TERRENO copiar
 10
12758.655062780113
 20
138.46400451660156
 30
0.0
  0
VERTEX
  8
COMBINADO H10 TERRENO copiar
 10
12773.006755764118
 20
138.99000549316406
 30
0.0
  0
VERTEX
  8
COMBINADO H10 TERRENO copiar
 10
12787.358448748122
 20
139.20599365234375
 30
0.0
  0
VERTEX
  8
COMBINADO H10 TERRENO copiar
 10
12801.710141732126
 20
139.25799560546875
 30
0.0
  0
VERTEX
  8
COMBINADO H10 TERRENO copiar
 10
12816.061834716133
 20
139.31500244140625
 30
0.0
  0
VERTEX
  8
COMBINADO H10 TERRENO copiar
 10
12830.413527700137
 20
139.3419952392578
 30
0.0
  0
VERTEX
  8
COMBINADO H10 TERRENO copiar
 10
12844.765220684141
 20
139.51199340820312
 30
0.0
  0
VERTEX
  8
COMBINADO H10 TERRENO copiar
 10
12859.116913668146
 20
140.6649932861328
 30
0.0
  0
VERTEX
  8
COMBINADO H10 TERRENO copiar
 10
12873.46860665215
 20
141.38299560546875
 30
0.0
  0
VERTEX
  8
COMBINADO H10 TERRENO copiar
 10
12887.820299636154
 20
142.66299438476562
 30
0.0
  0
VERTEX
  8
COMBINADO H10 TERRENO copiar
 10
12902.17199262016
 20
142.91099548339844
 30
0.0
  0
VERTEX
  8
COMBINADO H10 TERRENO copiar
 10
12916.523685604165
 20
142.3509979248047
 30
0.0
  0
VERTEX
  8
COMBINADO H10 TERRENO copiar
 10
12930.875378588169
 20
141.8509979248047
 30
0.0
  0
VERTEX
  8
COMBINADO H10 TERRENO copiar
 10
12945.227071572173
 20
141.31500244140625
 30
0.0
  0
VERTEX
  8
COMBINADO H10 TERRENO copiar
 10
12959.578764556178
 20
140.23199462890625
 30
0.0
  0
VERTEX
  8
COMBINADO H10 TERRENO copiar
 10
12973.930457540182
 20
139.6909942626953
 30
0.0
  0
VERTEX
  8
COMBINADO H10 TERRENO copiar
 10
12988.282150524188
 20
138.57899475097656
 30
0.0
  0
VERTEX
  8
COMBINADO H10 TERRENO copiar
 10
13002.633843508193
 20
137.9929962158203
 30
0.0
  0
VERTEX
  8
COMBINADO H10 TERRENO copiar
 10
13016.985536492197
 20
136.80499267578125
 30
0.0
  0
VERTEX
  8
COMBINADO H10 TERRENO copiar
 10
13031.337229476201
 20
136.06399536132812
 30
0.0
  0
VERTEX
  8
COMBINADO H10 TERRENO copiar
 10
13045.688922460206
 20
135.6510009765625
 30
0.0
  0
VERTEX
  8
COMBINADO H10 TERRENO copiar
 10
13060.04061544421
 20
135.23899841308594
 30
0.0
  0
VERTEX
  8
COMBINADO H10 TERRENO copiar
 10
13074.392308428216
 20
134.96499633789062
 30
0.0
  0
VERTEX
  8
COMBINADO H10 TERRENO copiar
 10
13088.74400141222
 20
134.13099670410156
 30
0.0
  0
VERTEX
  8
COMBINADO H10 TERRENO copiar
 10
13103.095694396225
 20
133.51199340820312
 30
0.0
  0
VERTEX
  8
COMBINADO H10 TERRENO copiar
 10
13117.447387380229
 20
132.38099670410156
 30
0.0
  0
VERTEX
  8
COMBINADO H10 TERRENO copiar
 10
13131.799080364233
 20
131.95399475097656
 30
0.0
  0
VERTEX
  8
COMBINADO H10 TERRENO copiar
 10
13146.150773348238
 20
131.6020050048828
 30
0.0
  0
VERTEX
  8
COMBINADO H10 TERRENO copiar
 10
13160.502466332244
 20
131.11399841308594
 30
0.0
  0
VERTEX
  8
COMBINADO H10 TERRENO copiar
 10
13174.854159316248
 20
130.8000030517578
 30
0.0
  0
VERTEX
  8
COMBINADO H10 TERRENO copiar
 10
13189.205852300252
 20
130.3979949951172
 30
0.0
  0
VERTEX
  8
COMBINADO H10 TERRENO copiar
 10
13203.557545284257
 20
130.06100463867188
 30
0.0
  0
VERTEX
  8
COMBINADO H10 TERRENO copiar
 10
13217.909238268261
 20
129.66000366210938
 30
0.0
  0
VERTEX
  8
COMBINADO H10 TERRENO copiar
 10
13232.260931252265
 20
129.6219940185547
 30
0.0
  0
VERTEX
  8
COMBINADO H10 TERRENO copiar
 10
13246.612624236272
 20
129.58799743652344
 30
0.0
  0
VERTEX
  8
COMBINADO H10 TERRENO copiar
 10
13260.964317220276
 20
129.41299438476562
 30
0.0
  0
VERTEX
  8
COMBINADO H10 TERRENO copiar
 10
13275.31601020428
 20
129.2790069580078
 30
0.0
  0
VERTEX
  8
COMBINADO H10 TERRENO copiar
 10
13289.667703188285
 20
129.26800537109375
 30
0.0
  0
VERTEX
  8
COMBINADO H10 TERRENO copiar
 10
13304.019396172289
 20
129.77000427246094
 30
0.0
  0
VERTEX
  8
COMBINADO H10 TERRENO copiar
 10
13318.371089156293
 20
130.447998046875
 30
0.0
  0
VERTEX
  8
COMBINADO H10 TERRENO copiar
 10
13332.7227821403
 20
130.66700744628906
 30
0.0
  0
VERTEX
  8
COMBINADO H10 TERRENO copiar
 10
13347.074475124304
 20
131.0030059814453
 30
0.0
  0
VERTEX
  8
COMBINADO H10 TERRENO copiar
 10
13361.426168108308
 20
130.98599243164062
 30
0.0
  0
VERTEX
  8
COMBINADO H10 TERRENO copiar
 10
13375.777861092312
 20
130.74200439453125
 30
0.0
  0
VERTEX
  8
COMBINADO H10 TERRENO copiar
 10
13390.129554076317
 20
129.75
 30
0.0
  0
VERTEX
  8
COMBINADO H10 TERRENO copiar
 10
13404.481247060321
 20
129.19700622558594
 30
0.0
  0
VERTEX
  8
COMBINADO H10 TERRENO copiar
 10
13418.832940044325
 20
128.36500549316406
 30
0.0
  0
VERTEX
  8
COMBINADO H10 TERRENO copiar
 10
13433.184633028332
 20
128.3509979248047
 30
0.0
  0
VERTEX
  8
COMBINADO H10 TERRENO copiar
 10
13447.536326012336
 20
128.08200073242188
 30
0.0
  0
VERTEX
  8
COMBINADO H10 TERRENO copiar
 10
13461.88801899634
 20
128.01499938964844
 30
0.0
  0
VERTEX
  8
COMBINADO H10 TERRENO copiar
 10
13476.239711980345
 20
127.89299774169922
 30
0.0
  0
VERTEX
  8
COMBINADO H10 TERRENO copiar
 10
13490.591404964349
 20
127.51599884033203
 30
0.0
  0
VERTEX
  8
COMBINADO H10 TERRENO copiar
 10
13504.943097948353
 20
127.30899810791016
 30
0.0
  0
VERTEX
  8
COMBINADO H10 TERRENO copiar
 10
13519.29479093236
 20
127.04100036621094
 30
0.0
  0
VERTEX
  8
COMBINADO H10 TERRENO copiar
 10
13533.646483916364
 20
126.97899627685547
 30
0.0
  0
VERTEX
  8
COMBINADO H10 TERRENO copiar
 10
13547.998176900368
 20
126.64399719238281
 30
0.0
  0
VERTEX
  8
COMBINADO H10 TERRENO copiar
 10
13562.349869884372
 20
125.97000122070312
 30
0.0
  0
VERTEX
  8
COMBINADO H10 TERRENO copiar
 10
13576.701562868377
 20
125.86799621582031
 30
0.0
  0
VERTEX
  8
COMBINADO H10 TERRENO copiar
 10
13591.053255852381
 20
126.26399993896484
 30
0.0
  0
VERTEX
  8
COMBINADO H10 TERRENO copiar
 10
13605.404948836387
 20
126.49600219726562
 30
0.0
  0
VERTEX
  8
COMBINADO H10 TERRENO copiar
 10
13619.756641820391
 20
126.5270004272461
 30
0.0
  0
VERTEX
  8
COMBINADO H10 TERRENO copiar
 10
13634.108334804396
 20
126.5739974975586
 30
0.0
  0
VERTEX
  8
COMBINADO H10 TERRENO copiar
 10
13648.4600277884
 20
126.08300018310547
 30
0.0
  0
VERTEX
  8
COMBINADO H10 TERRENO copiar
 10
13662.811720772404
 20
125.45899963378906
 30
0.0
  0
VERTEX
  8
COMBINADO H10 TERRENO copiar
 10
13677.163413756409
 20
124.86399841308594
 30
0.0
  0
VERTEX
  8
COMBINADO H10 TERRENO copiar
 10
13691.515106740415
 20
122.52999877929688
 30
0.0
  0
VERTEX
  8
COMBINADO H10 TERRENO copiar
 10
13705.86679972442
 20
122.11499786376953
 30
0.0
  0
VERTEX
  8
COMBINADO H10 TERRENO copiar
 10
13720.218492708424
 20
121.55899810791016
 30
0.0
  0
VERTEX
  8
COMBINADO H10 TERRENO copiar
 10
13734.570185692428
 20
121.28399658203125
 30
0.0
  0
VERTEX
  8
COMBINADO H10 TERRENO copiar
 10
13748.921878676432
 20
120.68499755859375
 30
0.0
  0
VERTEX
  8
COMBINADO H10 TERRENO copiar
 10
13763.273571660437
 20
120.3489990234375
 30
0.0
  0
VERTEX
  8
COMBINADO H10 TERRENO copiar
 10
13777.625264644443
 20
119.91100311279297
 30
0.0
  0
VERTEX
  8
COMBINADO H10 TERRENO copiar
 10
13791.976957628447
 20
119.0469970703125
 30
0.0
  0
VERTEX
  8
COMBINADO H10 TERRENO copiar
 10
13806.328650612451
 20
118.8949966430664
 30
0.0
  0
VERTEX
  8
COMBINADO H10 TERRENO copiar
 10
13820.680343596456
 20
118.56999969482422
 30
0.0
  0
VERTEX
  8
COMBINADO H10 TERRENO copiar
 10
13835.03203658046
 20
118.39600372314453
 30
0.0
  0
VERTEX
  8
COMBINADO H10 TERRENO copiar
 10
13849.383729564464
 20
117.83000183105469
 30
0.0
  0
VERTEX
  8
COMBINADO H10 TERRENO copiar
 10
13863.73542254847
 20
117.51699829101562
 30
0.0
  0
VERTEX
  8
COMBINADO H10 TERRENO copiar
 10
13878.087115532475
 20
116.9000015258789
 30
0.0
  0
VERTEX
  8
COMBINADO H10 TERRENO copiar
 10
13892.43880851648
 20
116.58699798583984
 30
0.0
  0
VERTEX
  8
COMBINADO H10 TERRENO copiar
 10
13906.790501500484
 20
116.26300048828125
 30
0.0
  0
VERTEX
  8
COMBINADO H10 TERRENO copiar
 10
13921.142194484488
 20
115.60299682617188
 30
0.0
  0
VERTEX
  8
COMBINADO H10 TERRENO copiar
 10
13935.493887468492
 20
115.26699829101562
 30
0.0
  0
VERTEX
  8
COMBINADO H10 TERRENO copiar
 10
13949.845580452498
 20
114.5770034790039
 30
0.0
  0
VERTEX
  8
COMBINADO H10 TERRENO copiar
 10
13964.197273436503
 20
114.28399658203125
 30
0.0
  0
VERTEX
  8
COMBINADO H10 TERRENO copiar
 10
13978.548966420507
 20
113.74199676513672
 30
0.0
  0
VERTEX
  8
COMBINADO H10 TERRENO copiar
 10
13992.900659404511
 20
113.48999786376953
 30
0.0
  0
VERTEX
  8
COMBINADO H10 TERRENO copiar
 10
14007.252352388516
 20
113.27799987792969
 30
0.0
  0
VERTEX
  8
COMBINADO H10 TERRENO copiar
 10
14021.60404537252
 20
113.08599853515625
 30
0.0
  0
VERTEX
  8
COMBINADO H10 TERRENO copiar
 10
14035.955738356524
 20
113.15899658203125
 30
0.0
  0
VERTEX
  8
COMBINADO H10 TERRENO copiar
 10
14050.30743134053
 20
113.23899841308594
 30
0.0
  0
VERTEX
  8
COMBINADO H10 TERRENO copiar
 10
14064.659124324535
 20
113.0770034790039
 30
0.0
  0
VERTEX
  8
COMBINADO H10 TERRENO copiar
 10
14079.01081730854
 20
112.40699768066406
 30
0.0
  0
VERTEX
  8
COMBINADO H10 TERRENO copiar
 10
14093.362510292543
 20
112.01799774169922
 30
0.0
  0
VERTEX
  8
COMBINADO H10 TERRENO copiar
 10
14107.714203276548
 20
111.68900299072266
 30
0.0
  0
VERTEX
  8
COMBINADO H10 TERRENO copiar
 10
14122.065896260552
 20
111.12899780273438
 30
0.0
  0
VERTEX
  8
COMBINADO H10 TERRENO copiar
 10
14136.417589244558
 20
110.79499816894531
 30
0.0
  0
VERTEX
  8
COMBINADO H10 TERRENO copiar
 10
14150.769282228563
 20
110.23400115966797
 30
0.0
  0
VERTEX
  8
COMBINADO H10 TERRENO copiar
 10
14165.120975212567
 20
109.95600128173828
 30
0.0
  0
VERTEX
  8
COMBINADO H10 TERRENO copiar
 10
14179.472668196571
 20
108.3489990234375
 30
0.0
  0
VERTEX
  8
COMBINADO H10 TERRENO copiar
 10
14193.824361180576
 20
107.5459976196289
 30
0.0
  0
VERTEX
  8
COMBINADO H10 TERRENO copiar
 10
14208.17605416458
 20
107.09100341796875
 30
0.0
  0
VERTEX
  8
COMBINADO H10 TERRENO copiar
 10
14222.527747148586
 20
106.7249984741211
 30
0.0
  0
VERTEX
  8
COMBINADO H10 TERRENO copiar
 10
14236.87944013259
 20
106.57499694824219
 30
0.0
  0
VERTEX
  8
COMBINADO H10 TERRENO copiar
 10
14251.231133116595
 20
106.22000122070312
 30
0.0
  0
VERTEX
  8
COMBINADO H10 TERRENO copiar
 10
14265.582826100599
 20
105.97200012207031
 30
0.0
  0
VERTEX
  8
COMBINADO H10 TERRENO copiar
 10
14279.934519084603
 20
105.30500030517578
 30
0.0
  0
VERTEX
  8
COMBINADO H10 TERRENO copiar
 10
14294.286212068608
 20
104.95800018310547
 30
0.0
  0
SEQEND
  0
POLYLINE
 62
7
  8
H10 SIERRA
 66
1
 10
0.0
 20
0.0
 30
0.0
 70
8
  0
VERTEX
  8
H10 SIERRA
 10
0.0
 20
102.25700378417969
 30
0.0
  0
VERTEX
  8
H10 SIERRA
 10
14.351692984004627
 20
106.85600280761719
 30
0.0
  0
VERTEX
  8
H10 SIERRA
 10
28.703385968009254
 20
114.78900146484375
 30
0.0
  0
VERTEX
  8
H10 SIERRA
 10
43.05507895201388
 20
118.51000213623047
 30
0.0
  0
VERTEX
  8
H10 SIERRA
 10
57.40677193601851
 20
123.0199966430664
 30
0.0
  0
VERTEX
  8
H10 SIERRA
 10
71.75846492002313
 20
122.97799682617188
 30
0.0
  0
VERTEX
  8
H10 SIERRA
 10
86.11015790402776
 20
121.98200225830078
 30
0.0
  0
VERTEX
  8
H10 SIERRA
 10
100.46185088803239
 20
120.15799713134766
 30
0.0
  0
VERTEX
  8
H10 SIERRA
 10
114.81354387203702
 20
119.91600036621094
 30
0.0
  0
VERTEX
  8
H10 SIERRA
 10
129.16523685604164
 20
120.9489974975586
 30
0.0
  0
VERTEX
  8
H10 SIERRA
 10
143.51692984004626
 20
118.68099975585938
 30
0.0
  0
VERTEX
  8
H10 SIERRA
 10
157.8686228240509
 20
117.4729995727539
 30
0.0
  0
VERTEX
  8
H10 SIERRA
 10
172.22031580805552
 20
116.00599670410156
 30
0.0
  0
VERTEX
  8
H10 SIERRA
 10
186.57200879206016
 20
114.4489974975586
 30
0.0
  0
VERTEX
  8
H10 SIERRA
 10
200.92370177606477
 20
112.45999908447266
 30
0.0
  0
VERTEX
  8
H10 SIERRA
 10
215.27539476006942
 20
112.22100067138672
 30
0.0
  0
VERTEX
  8
H10 SIERRA
 10
229.62708774407403
 20
111.11499786376953
 30
0.0
  0
VERTEX
  8
H10 SIERRA
 10
243.97878072807865
 20
109.77300262451172
 30
0.0
  0
VERTEX
  8
H10 SIERRA
 10
258.3304737120833
 20
106.3239974975586
 30
0.0
  0
VERTEX
  8
H10 SIERRA
 10
272.6821666960879
 20
104.6729965209961
 30
0.0
  0
VERTEX
  8
H10 SIERRA
 10
287.0338596800925
 20
103.38999938964844
 30
0.0
  0
VERTEX
  8
H10 SIERRA
 10
301.3855526640972
 20
98.8280029296875
 30
0.0
  0
VERTEX
  8
H10 SIERRA
 10
315.7372456481018
 20
98.15299987792969
 30
0.0
  0
VERTEX
  8
H10 SIERRA
 10
330.0889386321064
 20
98.7490005493164
 30
0.0
  0
VERTEX
  8
H10 SIERRA
 10
344.44063161611103
 20
98.76399993896484
 30
0.0
  0
VERTEX
  8
H10 SIERRA
 10
358.79232460011565
 20
98.35099792480469
 30
0.0
  0
VERTEX
  8
H10 SIERRA
 10
373.1440175841203
 20
97.18000030517578
 30
0.0
  0
VERTEX
  8
H10 SIERRA
 10
387.49571056812493
 20
95.14199829101562
 30
0.0
  0
VERTEX
  8
H10 SIERRA
 10
401.84740355212955
 20
90.73899841308594
 30
0.0
  0
VERTEX
  8
H10 SIERRA
 10
416.19909653613416
 20
90.87899780273438
 30
0.0
  0
VERTEX
  8
H10 SIERRA
 10
430.55078952013884
 20
86.40799713134766
 30
0.0
  0
VERTEX
  8
H10 SIERRA
 10
444.90248250414345
 20
83.05699920654297
 30
0.0
  0
VERTEX
  8
H10 SIERRA
 10
459.25417548814806
 20
75.4489974975586
 30
0.0
  0
VERTEX
  8
H10 SIERRA
 10
473.6058684721527
 20
71.88200378417969
 30
0.0
  0
VERTEX
  8
H10 SIERRA
 10
487.9575614561573
 20
65.6989974975586
 30
0.0
  0
VERTEX
  8
H10 SIERRA
 10
502.30925444016196
 20
62.89500045776367
 30
0.0
  0
VERTEX
  8
H10 SIERRA
 10
516.6609474241666
 20
60.54999923706055
 30
0.0
  0
VERTEX
  8
H10 SIERRA
 10
531.0126404081713
 20
60.862998962402344
 30
0.0
  0
VERTEX
  8
H10 SIERRA
 10
545.3643333921758
 20
63.54499816894531
 30
0.0
  0
VERTEX
  8
H10 SIERRA
 10
559.7160263761805
 20
68.052001953125
 30
0.0
  0
VERTEX
  8
H10 SIERRA
 10
574.067719360185
 20
68.6989974975586
 30
0.0
  0
VERTEX
  8
H10 SIERRA
 10
588.4194123441897
 20
68.36100006103516
 30
0.0
  0
VERTEX
  8
H10 SIERRA
 10
602.7711053281944
 20
68.26399993896484
 30
0.0
  0
VERTEX
  8
H10 SIERRA
 10
617.1227983121989
 20
69.09600067138672
 30
0.0
  0
VERTEX
  8
H10 SIERRA
 10
631.4744912962036
 20
71.80400085449219
 30
0.0
  0
VERTEX
  8
H10 SIERRA
 10
645.8261842802082
 20
73.31199645996094
 30
0.0
  0
VERTEX
  8
H10 SIERRA
 10
660.1778772642128
 20
78.07599639892578
 30
0.0
  0
VERTEX
  8
H10 SIERRA
 10
674.5295702482175
 20
81.73100280761719
 30
0.0
  0
VERTEX
  8
H10 SIERRA
 10
688.8812632322221
 20
84.87799835205078
 30
0.0
  0
VERTEX
  8
H10 SIERRA
 10
703.2329562162267
 20
84.3479995727539
 30
0.0
  0
VERTEX
  8
H10 SIERRA
 10
717.5846492002313
 20
84.26000213623047
 30
0.0
  0
VERTEX
  8
H10 SIERRA
 10
731.936342184236
 20
89.24199676513672
 30
0.0
  0
VERTEX
  8
H10 SIERRA
 10
746.2880351682406
 20
92.64800262451172
 30
0.0
  0
VERTEX
  8
H10 SIERRA
 10
760.6397281522452
 20
98.72699737548828
 30
0.0
  0
VERTEX
  8
H10 SIERRA
 10
774.9914211362499
 20
101.37699890136719
 30
0.0
  0
VERTEX
  8
H10 SIERRA
 10
789.3431141202545
 20
106.13400268554688
 30
0.0
  0
VERTEX
  8
H10 SIERRA
 10
803.6948071042591
 20
108.21900177001953
 30
0.0
  0
VERTEX
  8
H10 SIERRA
 10
818.0465000882638
 20
108.24400329589844
 30
0.0
  0
VERTEX
  8
H10 SIERRA
 10
832.3981930722683
 20
104.5739974975586
 30
0.0
  0
VERTEX
  8
H10 SIERRA
 10
846.749886056273
 20
103.67900085449219
 30
0.0
  0
VERTEX
  8
H10 SIERRA
 10
861.1015790402777
 20
101.2229995727539
 30
0.0
  0
VERTEX
  8
H10 SIERRA
 10
875.4532720242822
 20
98.39800262451172
 30
0.0
  0
VERTEX
  8
H10 SIERRA
 10
889.8049650082869
 20
94.5780029296875
 30
0.0
  0
VERTEX
  8
H10 SIERRA
 10
904.1566579922915
 20
94.24500274658203
 30
0.0
  0
VERTEX
  8
H10 SIERRA
 10
918.5083509762961
 20
94.00299835205078
 30
0.0
  0
VERTEX
  8
H10 SIERRA
 10
932.8600439603008
 20
88.65799713134766
 30
0.0
  0
VERTEX
  8
H10 SIERRA
 10
947.2117369443054
 20
86.56099700927734
 30
0.0
  0
VERTEX
  8
H10 SIERRA
 10
961.56342992831
 20
82.14900207519531
 30
0.0
  0
VERTEX
  8
H10 SIERRA
 10
975.9151229123146
 20
80.88200378417969
 30
0.0
  0
VERTEX
  8
H10 SIERRA
 10
990.2668158963193
 20
80.0510025024414
 30
0.0
  0
VERTEX
  8
H10 SIERRA
 10
1004.6185088803239
 20
79.89600372314453
 30
0.0
  0
VERTEX
  8
H10 SIERRA
 10
1018.9702018643285
 20
79.73100280761719
 30
0.0
  0
VERTEX
  8
H10 SIERRA
 10
1033.3218948483332
 20
78.9000015258789
 30
0.0
  0
VERTEX
  8
H10 SIERRA
 10
1047.6735878323377
 20
78.40599822998047
 30
0.0
  0
VERTEX
  8
H10 SIERRA
 10
1062.0252808163425
 20
76.83799743652344
 30
0.0
  0
VERTEX
  8
H10 SIERRA
 10
1076.376973800347
 20
77.427001953125
 30
0.0
  0
VERTEX
  8
H10 SIERRA
 10
1090.7286667843516
 20
79.51100158691406
 30
0.0
  0
VERTEX
  8
H10 SIERRA
 10
1105.0803597683562
 20
81.81500244140625
 30
0.0
  0
VERTEX
  8
H10 SIERRA
 10
1119.432052752361
 20
85.64900207519531
 30
0.0
  0
VERTEX
  8
H10 SIERRA
 10
1133.7837457363655
 20
86.81600189208984
 30
0.0
  0
VERTEX
  8
H10 SIERRA
 10
1148.13543872037
 20
87.65699768066406
 30
0.0
  0
VERTEX
  8
H10 SIERRA
 10
1162.4871317043749
 20
88.52999877929688
 30
0.0
  0
VERTEX
  8
H10 SIERRA
 10
1176.8388246883794
 20
88.44599914550781
 30
0.0
  0
VERTEX
  8
H10 SIERRA
 10
1191.190517672384
 20
88.90299987792969
 30
0.0
  0
VERTEX
  8
H10 SIERRA
 10
1205.5422106563888
 20
92.7040023803711
 30
0.0
  0
VERTEX
  8
H10 SIERRA
 10
1219.8939036403933
 20
93.11399841308594
 30
0.0
  0
VERTEX
  8
H10 SIERRA
 10
1234.2455966243979
 20
92.84300231933594
 30
0.0
  0
VERTEX
  8
H10 SIERRA
 10
1248.5972896084027
 20
92.89099884033203
 30
0.0
  0
VERTEX
  8
H10 SIERRA
 10
1262.9489825924072
 20
93.79399871826172
 30
0.0
  0
VERTEX
  8
H10 SIERRA
 10
1277.3006755764118
 20
92.91300201416016
 30
0.0
  0
VERTEX
  8
H10 SIERRA
 10
1291.6523685604163
 20
87.97599792480469
 30
0.0
  0
VERTEX
  8
H10 SIERRA
 10
1306.0040615444211
 20
85.05500030517578
 30
0.0
  0
VERTEX
  8
H10 SIERRA
 10
1320.3557545284257
 20
80.38099670410156
 30
0.0
  0
VERTEX
  8
H10 SIERRA
 10
1334.7074475124302
 20
76.29399871826172
 30
0.0
  0
VERTEX
  8
H10 SIERRA
 10
1349.059140496435
 20
74.49800109863281
 30
0.0
  0
VERTEX
  8
H10 SIERRA
 10
1363.4108334804396
 20
70.53299713134766
 30
0.0
  0
VERTEX
  8
H10 SIERRA
 10
1377.7625264644441
 20
70.53299713134766
 30
0.0
  0
VERTEX
  8
H10 SIERRA
 10
1392.114219448449
 20
70.53299713134766
 30
0.0
  0
VERTEX
  8
H10 SIERRA
 10
1406.4659124324535
 20
75.2020034790039
 30
0.0
  0
VERTEX
  8
H10 SIERRA
 10
1420.817605416458
 20
80.61199951171875
 30
0.0
  0
VERTEX
  8
H10 SIERRA
 10
1435.1692984004626
 20
82.3479995727539
 30
0.0
  0
VERTEX
  8
H10 SIERRA
 10
1449.5209913844674
 20
82.56300354003906
 30
0.0
  0
VERTEX
  8
H10 SIERRA
 10
1463.872684368472
 20
78.37300109863281
 30
0.0
  0
VERTEX
  8
H10 SIERRA
 10
1478.2243773524765
 20
77.31800079345703
 30
0.0
  0
VERTEX
  8
H10 SIERRA
 10
1492.5760703364813
 20
77.04900360107422
 30
0.0
  0
VERTEX
  8
H10 SIERRA
 10
1506.9277633204858
 20
76.33300018310547
 30
0.0
  0
VERTEX
  8
H10 SIERRA
 10
1521.2794563044904
 20
73.10199737548828
 30
0.0
  0
VERTEX
  8
H10 SIERRA
 10
1535.6311492884952
 20
70.53299713134766
 30
0.0
  0
VERTEX
  8
H10 SIERRA
 10
1549.9828422724997
 20
70.53299713134766
 30
0.0
  0
VERTEX
  8
H10 SIERRA
 10
1564.3345352565043
 20
76.35299682617188
 30
0.0
  0
VERTEX
  8
H10 SIERRA
 10
1578.686228240509
 20
80.23500061035156
 30
0.0
  0
VERTEX
  8
H10 SIERRA
 10
1593.0379212245136
 20
86.86399841308594
 30
0.0
  0
VERTEX
  8
H10 SIERRA
 10
1607.3896142085182
 20
89.90599822998047
 30
0.0
  0
VERTEX
  8
H10 SIERRA
 10
1621.7413071925228
 20
93.70800018310547
 30
0.0
  0
VERTEX
  8
H10 SIERRA
 10
1636.0930001765275
 20
94.01499938964844
 30
0.0
  0
VERTEX
  8
H10 SIERRA
 10
1650.444693160532
 20
93.86799621582031
 30
0.0
  0
VERTEX
  8
H10 SIERRA
 10
1664.7963861445367
 20
94.5780029296875
 30
0.0
  0
VERTEX
  8
H10 SIERRA
 10
1679.1480791285414
 20
95.80799865722656
 30
0.0
  0
VERTEX
  8
H10 SIERRA
 10
1693.499772112546
 20
95.96499633789062
 30
0.0
  0
VERTEX
  8
H10 SIERRA
 10
1707.8514650965506
 20
94.7030029296875
 30
0.0
  0
VERTEX
  8
H10 SIERRA
 10
1722.2031580805553
 20
93.5459976196289
 30
0.0
  0
VERTEX
  8
H10 SIERRA
 10
1736.55485106456
 20
92.81099700927734
 30
0.0
  0
VERTEX
  8
H10 SIERRA
 10
1750.9065440485645
 20
90.50299835205078
 30
0.0
  0
VERTEX
  8
H10 SIERRA
 10
1765.258237032569
 20
88.37699890136719
 30
0.0
  0
VERTEX
  8
H10 SIERRA
 10
1779.6099300165738
 20
86.14299774169922
 30
0.0
  0
VERTEX
  8
H10 SIERRA
 10
1793.9616230005784
 20
82.0530014038086
 30
0.0
  0
VERTEX
  8
H10 SIERRA
 10
1808.313315984583
 20
80.1989974975586
 30
0.0
  0
VERTEX
  8
H10 SIERRA
 10
1822.6650089685877
 20
77.85399627685547
 30
0.0
  0
VERTEX
  8
H10 SIERRA
 10
1837.0167019525923
 20
77.45899963378906
 30
0.0
  0
VERTEX
  8
H10 SIERRA
 10
1851.3683949365968
 20
77.28099822998047
 30
0.0
  0
VERTEX
  8
H10 SIERRA
 10
1865.7200879206016
 20
75.01699829101562
 30
0.0
  0
VERTEX
  8
H10 SIERRA
 10
1880.0717809046062
 20
74.44300079345703
 30
0.0
  0
VERTEX
  8
H10 SIERRA
 10
1894.4234738886107
 20
75.43399810791016
 30
0.0
  0
VERTEX
  8
H10 SIERRA
 10
1908.7751668726155
 20
77.37000274658203
 30
0.0
  0
VERTEX
  8
H10 SIERRA
 10
1923.12685985662
 20
79.00499725341797
 30
0.0
  0
VERTEX
  8
H10 SIERRA
 10
1937.4785528406246
 20
77.9739990234375
 30
0.0
  0
VERTEX
  8
H10 SIERRA
 10
1951.8302458246292
 20
76.52100372314453
 30
0.0
  0
VERTEX
  8
H10 SIERRA
 10
1966.181938808634
 20
77.96600341796875
 30
0.0
  0
VERTEX
  8
H10 SIERRA
 10
1980.5336317926385
 20
80.45500183105469
 30
0.0
  0
VERTEX
  8
H10 SIERRA
 10
1994.885324776643
 20
86.32099914550781
 30
0.0
  0
VERTEX
  8
H10 SIERRA
 10
2009.2370177606479
 20
89.5250015258789
 30
0.0
  0
VERTEX
  8
H10 SIERRA
 10
2023.5887107446524
 20
93.96299743652344
 30
0.0
  0
VERTEX
  8
H10 SIERRA
 10
2037.940403728657
 20
94.73500061035156
 30
0.0
  0
VERTEX
  8
H10 SIERRA
 10
2052.2920967126615
 20
93.85099792480469
 30
0.0
  0
VERTEX
  8
H10 SIERRA
 10
2066.6437896966663
 20
93.0979995727539
 30
0.0
  0
VERTEX
  8
H10 SIERRA
 10
2080.995482680671
 20
92.89399719238281
 30
0.0
  0
VERTEX
  8
H10 SIERRA
 10
2095.3471756646754
 20
92.62300109863281
 30
0.0
  0
VERTEX
  8
H10 SIERRA
 10
2109.69886864868
 20
91.23200225830078
 30
0.0
  0
VERTEX
  8
H10 SIERRA
 10
2124.050561632685
 20
85.23500061035156
 30
0.0
  0
VERTEX
  8
H10 SIERRA
 10
2138.4022546166893
 20
82.15399932861328
 30
0.0
  0
VERTEX
  8
H10 SIERRA
 10
2152.753947600694
 20
76.36000061035156
 30
0.0
  0
VERTEX
  8
H10 SIERRA
 10
2167.105640584699
 20
74.35199737548828
 30
0.0
  0
VERTEX
  8
H10 SIERRA
 10
2181.4573335687032
 20
70.53299713134766
 30
0.0
  0
VERTEX
  8
H10 SIERRA
 10
2195.809026552708
 20
74.0199966430664
 30
0.0
  0
VERTEX
  8
H10 SIERRA
 10
2210.1607195367123
 20
73.84200286865234
 30
0.0
  0
VERTEX
  8
H10 SIERRA
 10
2224.512412520717
 20
73.22599792480469
 30
0.0
  0
VERTEX
  8
H10 SIERRA
 10
2238.864105504722
 20
72.70899963378906
 30
0.0
  0
VERTEX
  8
H10 SIERRA
 10
2253.2157984887263
 20
70.53299713134766
 30
0.0
  0
VERTEX
  8
H10 SIERRA
 10
2267.567491472731
 20
70.53299713134766
 30
0.0
  0
VERTEX
  8
H10 SIERRA
 10
2281.919184456736
 20
70.53299713134766
 30
0.0
  0
VERTEX
  8
H10 SIERRA
 10
2296.27087744074
 20
70.53299713134766
 30
0.0
  0
VERTEX
  8
H10 SIERRA
 10
2310.622570424745
 20
70.53299713134766
 30
0.0
  0
VERTEX
  8
H10 SIERRA
 10
2324.9742634087497
 20
70.53299713134766
 30
0.0
  0
VERTEX
  8
H10 SIERRA
 10
2339.325956392754
 20
70.53299713134766
 30
0.0
  0
VERTEX
  8
H10 SIERRA
 10
2353.677649376759
 20
70.53299713134766
 30
0.0
  0
VERTEX
  8
H10 SIERRA
 10
2368.0293423607636
 20
70.53299713134766
 30
0.0
  0
VERTEX
  8
H10 SIERRA
 10
2382.381035344768
 20
70.53299713134766
 30
0.0
  0
VERTEX
  8
H10 SIERRA
 10
2396.7327283287727
 20
70.53299713134766
 30
0.0
  0
VERTEX
  8
H10 SIERRA
 10
2411.0844213127775
 20
70.53299713134766
 30
0.0
  0
VERTEX
  8
H10 SIERRA
 10
2425.436114296782
 20
70.53299713134766
 30
0.0
  0
VERTEX
  8
H10 SIERRA
 10
2439.7878072807866
 20
70.53299713134766
 30
0.0
  0
VERTEX
  8
H10 SIERRA
 10
2454.1395002647914
 20
70.53299713134766
 30
0.0
  0
VERTEX
  8
H10 SIERRA
 10
2468.4911932487958
 20
70.53299713134766
 30
0.0
  0
VERTEX
  8
H10 SIERRA
 10
2482.8428862328005
 20
70.53299713134766
 30
0.0
  0
VERTEX
  8
H10 SIERRA
 10
2497.1945792168053
 20
70.53299713134766
 30
0.0
  0
VERTEX
  8
H10 SIERRA
 10
2511.5462722008097
 20
70.53299713134766
 30
0.0
  0
VERTEX
  8
H10 SIERRA
 10
2525.8979651848144
 20
70.53299713134766
 30
0.0
  0
VERTEX
  8
H10 SIERRA
 10
2540.2496581688188
 20
70.53299713134766
 30
0.0
  0
VERTEX
  8
H10 SIERRA
 10
2554.6013511528236
 20
70.53299713134766
 30
0.0
  0
VERTEX
  8
H10 SIERRA
 10
2568.9530441368283
 20
70.53299713134766
 30
0.0
  0
VERTEX
  8
H10 SIERRA
 10
2583.3047371208327
 20
70.53299713134766
 30
0.0
  0
VERTEX
  8
H10 SIERRA
 10
2597.6564301048375
 20
70.53299713134766
 30
0.0
  0
VERTEX
  8
H10 SIERRA
 10
2612.0081230888422
 20
70.53299713134766
 30
0.0
  0
VERTEX
  8
H10 SIERRA
 10
2626.3598160728466
 20
70.53299713134766
 30
0.0
  0
VERTEX
  8
H10 SIERRA
 10
2640.7115090568514
 20
70.53299713134766
 30
0.0
  0
VERTEX
  8
H10 SIERRA
 10
2655.063202040856
 20
70.53299713134766
 30
0.0
  0
VERTEX
  8
H10 SIERRA
 10
2669.4148950248605
 20
70.53299713134766
 30
0.0
  0
VERTEX
  8
H10 SIERRA
 10
2683.7665880088653
 20
70.53299713134766
 30
0.0
  0
VERTEX
  8
H10 SIERRA
 10
2698.11828099287
 20
70.53299713134766
 30
0.0
  0
VERTEX
  8
H10 SIERRA
 10
2712.4699739768744
 20
70.53299713134766
 30
0.0
  0
VERTEX
  8
H10 SIERRA
 10
2726.821666960879
 20
70.53299713134766
 30
0.0
  0
VERTEX
  8
H10 SIERRA
 10
2741.173359944884
 20
73.3030014038086
 30
0.0
  0
VERTEX
  8
H10 SIERRA
 10
2755.5250529288883
 20
75.54000091552734
 30
0.0
  0
VERTEX
  8
H10 SIERRA
 10
2769.876745912893
 20
76.09600067138672
 30
0.0
  0
VERTEX
  8
H10 SIERRA
 10
2784.228438896898
 20
75.4280014038086
 30
0.0
  0
VERTEX
  8
H10 SIERRA
 10
2798.580131880902
 20
75.11299896240234
 30
0.0
  0
VERTEX
  8
H10 SIERRA
 10
2812.931824864907
 20
74.77799987792969
 30
0.0
  0
VERTEX
  8
H10 SIERRA
 10
2827.2835178489117
 20
74.21099853515625
 30
0.0
  0
VERTEX
  8
H10 SIERRA
 10
2841.635210832916
 20
73.9749984741211
 30
0.0
  0
VERTEX
  8
H10 SIERRA
 10
2855.986903816921
 20
73.97699737548828
 30
0.0
  0
VERTEX
  8
H10 SIERRA
 10
2870.338596800925
 20
74.21800231933594
 30
0.0
  0
VERTEX
  8
H10 SIERRA
 10
2884.69028978493
 20
74.69000244140625
 30
0.0
  0
VERTEX
  8
H10 SIERRA
 10
2899.0419827689348
 20
74.89800262451172
 30
0.0
  0
VERTEX
  8
H10 SIERRA
 10
2913.393675752939
 20
75.27999877929688
 30
0.0
  0
VERTEX
  8
H10 SIERRA
 10
2927.745368736944
 20
75.60399627685547
 30
0.0
  0
VERTEX
  8
H10 SIERRA
 10
2942.0970617209487
 20
75.93399810791016
 30
0.0
  0
VERTEX
  8
H10 SIERRA
 10
2956.448754704953
 20
76.55400085449219
 30
0.0
  0
VERTEX
  8
H10 SIERRA
 10
2970.800447688958
 20
76.87200164794922
 30
0.0
  0
VERTEX
  8
H10 SIERRA
 10
2985.1521406729626
 20
77.6050033569336
 30
0.0
  0
VERTEX
  8
H10 SIERRA
 10
2999.503833656967
 20
78.02999877929688
 30
0.0
  0
VERTEX
  8
H10 SIERRA
 10
3013.8555266409717
 20
78.96900177001953
 30
0.0
  0
VERTEX
  8
H10 SIERRA
 10
3028.2072196249765
 20
79.4739990234375
 30
0.0
  0
VERTEX
  8
H10 SIERRA
 10
3042.558912608981
 20
79.74400329589844
 30
0.0
  0
VERTEX
  8
H10 SIERRA
 10
3056.9106055929856
 20
80.74299621582031
 30
0.0
  0
VERTEX
  8
H10 SIERRA
 10
3071.2622985769904
 20
81.2249984741211
 30
0.0
  0
VERTEX
  8
H10 SIERRA
 10
3085.6139915609947
 20
82.11499786376953
 30
0.0
  0
VERTEX
  8
H10 SIERRA
 10
3099.9656845449995
 20
82.52300262451172
 30
0.0
  0
VERTEX
  8
H10 SIERRA
 10
3114.3173775290043
 20
83.32599639892578
 30
0.0
  0
VERTEX
  8
H10 SIERRA
 10
3128.6690705130086
 20
83.75700378417969
 30
0.0
  0
VERTEX
  8
H10 SIERRA
 10
3143.0207634970134
 20
84.21800231933594
 30
0.0
  0
VERTEX
  8
H10 SIERRA
 10
3157.372456481018
 20
85.16600036621094
 30
0.0
  0
VERTEX
  8
H10 SIERRA
 10
3171.7241494650225
 20
85.68699645996094
 30
0.0
  0
VERTEX
  8
H10 SIERRA
 10
3186.0758424490273
 20
86.58899688720703
 30
0.0
  0
VERTEX
  8
H10 SIERRA
 10
3200.4275354330316
 20
86.98500061035156
 30
0.0
  0
VERTEX
  8
H10 SIERRA
 10
3214.7792284170364
 20
87.64299774169922
 30
0.0
  0
VERTEX
  8
H10 SIERRA
 10
3229.130921401041
 20
87.9229965209961
 30
0.0
  0
VERTEX
  8
H10 SIERRA
 10
3243.4826143850455
 20
88.18000030517578
 30
0.0
  0
VERTEX
  8
H10 SIERRA
 10
3257.8343073690503
 20
88.56999969482422
 30
0.0
  0
VERTEX
  8
H10 SIERRA
 10
3272.186000353055
 20
88.6969985961914
 30
0.0
  0
VERTEX
  8
H10 SIERRA
 10
3286.5376933370594
 20
88.76100158691406
 30
0.0
  0
VERTEX
  8
H10 SIERRA
 10
3300.889386321064
 20
89.41400146484375
 30
0.0
  0
VERTEX
  8
H10 SIERRA
 10
3315.241079305069
 20
89.08300018310547
 30
0.0
  0
VERTEX
  8
H10 SIERRA
 10
3329.5927722890733
 20
88.78900146484375
 30
0.0
  0
VERTEX
  8
H10 SIERRA
 10
3343.944465273078
 20
88.42900085449219
 30
0.0
  0
VERTEX
  8
H10 SIERRA
 10
3358.296158257083
 20
87.60800170898438
 30
0.0
  0
VERTEX
  8
H10 SIERRA
 10
3372.647851241087
 20
87.18800354003906
 30
0.0
  0
VERTEX
  8
H10 SIERRA
 10
3386.999544225092
 20
86.3219985961914
 30
0.0
  0
VERTEX
  8
H10 SIERRA
 10
3401.351237209097
 20
85.88999938964844
 30
0.0
  0
VERTEX
  8
H10 SIERRA
 10
3415.702930193101
 20
85.01100158691406
 30
0.0
  0
VERTEX
  8
H10 SIERRA
 10
3430.054623177106
 20
84.57599639892578
 30
0.0
  0
VERTEX
  8
H10 SIERRA
 10
3444.4063161611107
 20
84.6510009765625
 30
0.0
  0
VERTEX
  8
H10 SIERRA
 10
3458.758009145115
 20
83.75
 30
0.0
  0
VERTEX
  8
H10 SIERRA
 10
3473.10970212912
 20
83.31800079345703
 30
0.0
  0
VERTEX
  8
H10 SIERRA
 10
3487.4613951131246
 20
82.63400268554688
 30
0.0
  0
VERTEX
  8
H10 SIERRA
 10
3501.813088097129
 20
82.41699981689453
 30
0.0
  0
VERTEX
  8
H10 SIERRA
 10
3516.1647810811337
 20
82.0719985961914
 30
0.0
  0
VERTEX
  8
H10 SIERRA
 10
3530.516474065138
 20
81.91100311279297
 30
0.0
  0
VERTEX
  8
H10 SIERRA
 10
3544.868167049143
 20
81.6240005493164
 30
0.0
  0
VERTEX
  8
H10 SIERRA
 10
3559.2198600331476
 20
81.49400329589844
 30
0.0
  0
VERTEX
  8
H10 SIERRA
 10
3573.571553017152
 20
81.9280014038086
 30
0.0
  0
VERTEX
  8
H10 SIERRA
 10
3587.9232460011567
 20
81.64099884033203
 30
0.0
  0
VERTEX
  8
H10 SIERRA
 10
3602.2749389851615
 20
81.43499755859375
 30
0.0
  0
VERTEX
  8
H10 SIERRA
 10
3616.626631969166
 20
80.875
 30
0.0
  0
VERTEX
  8
H10 SIERRA
 10
3630.9783249531706
 20
80.53299713134766
 30
0.0
  0
VERTEX
  8
H10 SIERRA
 10
3645.3300179371754
 20
79.79000091552734
 30
0.0
  0
VERTEX
  8
H10 SIERRA
 10
3659.6817109211797
 20
79.41600036621094
 30
0.0
  0
VERTEX
  8
H10 SIERRA
 10
3674.0334039051845
 20
79.0530014038086
 30
0.0
  0
VERTEX
  8
H10 SIERRA
 10
3688.3850968891893
 20
78.37100219726562
 30
0.0
  0
VERTEX
  8
H10 SIERRA
 10
3702.7367898731936
 20
78.36299896240234
 30
0.0
  0
VERTEX
  8
H10 SIERRA
 10
3717.0884828571984
 20
77.71499633789062
 30
0.0
  0
VERTEX
  8
H10 SIERRA
 10
3731.440175841203
 20
77.43499755859375
 30
0.0
  0
VERTEX
  8
H10 SIERRA
 10
3745.7918688252075
 20
76.89600372314453
 30
0.0
  0
VERTEX
  8
H10 SIERRA
 10
3760.1435618092123
 20
76.63300323486328
 30
0.0
  0
VERTEX
  8
H10 SIERRA
 10
3774.495254793217
 20
76.38999938964844
 30
0.0
  0
VERTEX
  8
H10 SIERRA
 10
3788.8469477772214
 20
75.96099853515625
 30
0.0
  0
VERTEX
  8
H10 SIERRA
 10
3803.198640761226
 20
75.77400207519531
 30
0.0
  0
VERTEX
  8
H10 SIERRA
 10
3817.550333745231
 20
75.43199920654297
 30
0.0
  0
VERTEX
  8
H10 SIERRA
 10
3831.9020267292353
 20
75.427001953125
 30
0.0
  0
VERTEX
  8
H10 SIERRA
 10
3846.25371971324
 20
75.15599822998047
 30
0.0
  0
VERTEX
  8
H10 SIERRA
 10
3860.6054126972444
 20
75.0459976196289
 30
0.0
  0
VERTEX
  8
H10 SIERRA
 10
3874.9571056812492
 20
74.93699645996094
 30
0.0
  0
VERTEX
  8
H10 SIERRA
 10
3889.308798665254
 20
74.6729965209961
 30
0.0
  0
VERTEX
  8
H10 SIERRA
 10
3903.6604916492583
 20
74.51100158691406
 30
0.0
  0
VERTEX
  8
H10 SIERRA
 10
3918.012184633263
 20
74.23500061035156
 30
0.0
  0
VERTEX
  8
H10 SIERRA
 10
3932.363877617268
 20
74.177001953125
 30
0.0
  0
VERTEX
  8
H10 SIERRA
 10
3946.7155706012722
 20
74.22799682617188
 30
0.0
  0
VERTEX
  8
H10 SIERRA
 10
3961.067263585277
 20
74.31199645996094
 30
0.0
  0
VERTEX
  8
H10 SIERRA
 10
3975.418956569282
 20
74.37799835205078
 30
0.0
  0
VERTEX
  8
H10 SIERRA
 10
3989.770649553286
 20
74.4800033569336
 30
0.0
  0
VERTEX
  8
H10 SIERRA
 10
4004.122342537291
 20
74.5199966430664
 30
0.0
  0
VERTEX
  8
H10 SIERRA
 10
4018.4740355212957
 20
74.58799743652344
 30
0.0
  0
VERTEX
  8
H10 SIERRA
 10
4032.8257285053
 20
74.62899780273438
 30
0.0
  0
VERTEX
  8
H10 SIERRA
 10
4047.177421489305
 20
74.81700134277344
 30
0.0
  0
VERTEX
  8
H10 SIERRA
 10
4061.5291144733096
 20
75.00700378417969
 30
0.0
  0
VERTEX
  8
H10 SIERRA
 10
4075.880807457314
 20
75.2699966430664
 30
0.0
  0
VERTEX
  8
H10 SIERRA
 10
4090.2325004413187
 20
75.88999938964844
 30
0.0
  0
VERTEX
  8
H10 SIERRA
 10
4104.584193425323
 20
76.23500061035156
 30
0.0
  0
VERTEX
  8
H10 SIERRA
 10
4118.935886409328
 20
76.89700317382812
 30
0.0
  0
VERTEX
  8
H10 SIERRA
 10
4133.287579393333
 20
77.21900177001953
 30
0.0
  0
VERTEX
  8
H10 SIERRA
 10
4147.639272377337
 20
77.89700317382812
 30
0.0
  0
VERTEX
  8
H10 SIERRA
 10
4161.990965361342
 20
78.26300048828125
 30
0.0
  0
VERTEX
  8
H10 SIERRA
 10
4176.3426583453465
 20
79.0989990234375
 30
0.0
  0
VERTEX
  8
H10 SIERRA
 10
4190.694351329351
 20
79.55699920654297
 30
0.0
  0
VERTEX
  8
H10 SIERRA
 10
4205.046044313356
 20
80.02200317382812
 30
0.0
  0
VERTEX
  8
H10 SIERRA
 10
4219.39773729736
 20
81.01200103759766
 30
0.0
  0
VERTEX
  8
H10 SIERRA
 10
4233.749430281365
 20
81.35399627685547
 30
0.0
  0
VERTEX
  8
H10 SIERRA
 10
4248.10112326537
 20
82.37799835205078
 30
0.0
  0
VERTEX
  8
H10 SIERRA
 10
4262.452816249374
 20
82.8290023803711
 30
0.0
  0
VERTEX
  8
H10 SIERRA
 10
4276.804509233379
 20
83.51200103759766
 30
0.0
  0
VERTEX
  8
H10 SIERRA
 10
4291.156202217384
 20
83.63899993896484
 30
0.0
  0
VERTEX
  8
H10 SIERRA
 10
4305.507895201388
 20
83.54100036621094
 30
0.0
  0
VERTEX
  8
H10 SIERRA
 10
4319.859588185393
 20
82.59400177001953
 30
0.0
  0
VERTEX
  8
H10 SIERRA
 10
4334.211281169398
 20
81.81099700927734
 30
0.0
  0
VERTEX
  8
H10 SIERRA
 10
4348.562974153402
 20
79.88600158691406
 30
0.0
  0
VERTEX
  8
H10 SIERRA
 10
4362.9146671374065
 20
78.69599914550781
 30
0.0
  0
VERTEX
  8
H10 SIERRA
 10
4377.266360121411
 20
76.71299743652344
 30
0.0
  0
VERTEX
  8
H10 SIERRA
 10
4391.618053105416
 20
75.80899810791016
 30
0.0
  0
VERTEX
  8
H10 SIERRA
 10
4405.96974608942
 20
74.95600128173828
 30
0.0
  0
VERTEX
  8
H10 SIERRA
 10
4420.321439073425
 20
73.3239974975586
 30
0.0
  0
VERTEX
  8
H10 SIERRA
 10
4434.67313205743
 20
72.56800079345703
 30
0.0
  0
VERTEX
  8
H10 SIERRA
 10
4449.024825041434
 20
71.19100189208984
 30
0.0
  0
VERTEX
  8
H10 SIERRA
 10
4463.376518025439
 20
70.53900146484375
 30
0.0
  0
VERTEX
  8
H10 SIERRA
 10
4477.728211009444
 20
69.28700256347656
 30
0.0
  0
VERTEX
  8
H10 SIERRA
 10
4492.079903993448
 20
68.51899719238281
 30
0.0
  0
VERTEX
  8
H10 SIERRA
 10
4506.4315969774525
 20
67.97200012207031
 30
0.0
  0
VERTEX
  8
H10 SIERRA
 10
4520.783289961458
 20
66.8949966430664
 30
0.0
  0
VERTEX
  8
H10 SIERRA
 10
4535.134982945462
 20
66.35600280761719
 30
0.0
  0
VERTEX
  8
H10 SIERRA
 10
4549.486675929466
 20
65.22100067138672
 30
0.0
  0
VERTEX
  8
H10 SIERRA
 10
4563.838368913472
 20
64.66500091552734
 30
0.0
  0
VERTEX
  8
H10 SIERRA
 10
4578.190061897476
 20
63.784000396728516
 30
0.0
  0
VERTEX
  8
H10 SIERRA
 10
4592.54175488148
 20
63.507999420166016
 30
0.0
  0
VERTEX
  8
H10 SIERRA
 10
4606.8934478654855
 20
63.37699890136719
 30
0.0
  0
VERTEX
  8
H10 SIERRA
 10
4621.24514084949
 20
63.58399963378906
 30
0.0
  0
VERTEX
  8
H10 SIERRA
 10
4635.596833833494
 20
63.62300109863281
 30
0.0
  0
VERTEX
  8
H10 SIERRA
 10
4649.948526817499
 20
63.57400131225586
 30
0.0
  0
VERTEX
  8
H10 SIERRA
 10
4664.300219801504
 20
63.53499984741211
 30
0.0
  0
VERTEX
  8
H10 SIERRA
 10
4678.651912785508
 20
63.483001708984375
 30
0.0
  0
VERTEX
  8
H10 SIERRA
 10
4693.003605769513
 20
63.46799850463867
 30
0.0
  0
VERTEX
  8
H10 SIERRA
 10
4707.355298753518
 20
63.47600173950195
 30
0.0
  0
VERTEX
  8
H10 SIERRA
 10
4721.706991737522
 20
63.74800109863281
 30
0.0
  0
VERTEX
  8
H10 SIERRA
 10
4736.058684721527
 20
63.933998107910156
 30
0.0
  0
VERTEX
  8
H10 SIERRA
 10
4750.410377705532
 20
65.06300354003906
 30
0.0
  0
VERTEX
  8
H10 SIERRA
 10
4764.762070689536
 20
65.38999938964844
 30
0.0
  0
VERTEX
  8
H10 SIERRA
 10
4779.113763673541
 20
65.927001953125
 30
0.0
  0
VERTEX
  8
H10 SIERRA
 10
4793.4654566575455
 20
66.23300170898438
 30
0.0
  0
VERTEX
  8
H10 SIERRA
 10
4807.81714964155
 20
66.87200164794922
 30
0.0
  0
VERTEX
  8
H10 SIERRA
 10
4822.168842625555
 20
67.20600128173828
 30
0.0
  0
VERTEX
  8
H10 SIERRA
 10
4836.520535609559
 20
67.46399688720703
 30
0.0
  0
VERTEX
  8
H10 SIERRA
 10
4850.872228593564
 20
68.14600372314453
 30
0.0
  0
VERTEX
  8
H10 SIERRA
 10
4865.223921577569
 20
68.36599731445312
 30
0.0
  0
VERTEX
  8
H10 SIERRA
 10
4879.575614561573
 20
68.6259994506836
 30
0.0
  0
VERTEX
  8
H10 SIERRA
 10
4893.927307545578
 20
68.48799896240234
 30
0.0
  0
VERTEX
  8
H10 SIERRA
 10
4908.279000529583
 20
68.2509994506836
 30
0.0
  0
VERTEX
  8
H10 SIERRA
 10
4922.630693513587
 20
68.18000030517578
 30
0.0
  0
VERTEX
  8
H10 SIERRA
 10
4936.9823864975915
 20
68.03099822998047
 30
0.0
  0
VERTEX
  8
H10 SIERRA
 10
4951.334079481597
 20
67.36000061035156
 30
0.0
  0
VERTEX
  8
H10 SIERRA
 10
4965.685772465601
 20
66.90799713134766
 30
0.0
  0
VERTEX
  8
H10 SIERRA
 10
4980.037465449605
 20
65.9749984741211
 30
0.0
  0
VERTEX
  8
H10 SIERRA
 10
4994.389158433611
 20
65.51000213623047
 30
0.0
  0
VERTEX
  8
H10 SIERRA
 10
5008.740851417615
 20
64.51200103759766
 30
0.0
  0
VERTEX
  8
H10 SIERRA
 10
5023.092544401619
 20
64.07499694824219
 30
0.0
  0
SEQEND
  0
ENDSEC
  0
EOF
